<?xml version="1.0" encoding="UTF-8" standalone="no"?>
<!-- Created with Inkscape (http://www.inkscape.org/) -->

<svg
   width="210mm"
   height="297mm"
   viewBox="0 0 210 297"
   version="1.1"
   id="svg1"
   inkscape:version="1.3 (0e150ed6c4, 2023-07-21)"
   sodipodi:docname="it works on my computer - header.svg"
   xmlns:inkscape="http://www.inkscape.org/namespaces/inkscape"
   xmlns:sodipodi="http://sodipodi.sourceforge.net/DTD/sodipodi-0.dtd"
   xmlns="http://www.w3.org/2000/svg"
   xmlns:svg="http://www.w3.org/2000/svg">
  <sodipodi:namedview
     id="namedview1"
     pagecolor="#ffffff"
     bordercolor="#000000"
     borderopacity="0.25"
     inkscape:showpageshadow="2"
     inkscape:pageopacity="0.0"
     inkscape:pagecheckerboard="0"
     inkscape:deskcolor="#d1d1d1"
     inkscape:document-units="mm"
     inkscape:zoom="1.6266975"
     inkscape:cx="396.81624"
     inkscape:cy="537.89963"
     inkscape:window-width="3816"
     inkscape:window-height="2076"
     inkscape:window-x="0"
     inkscape:window-y="0"
     inkscape:window-maximized="1"
     inkscape:current-layer="layer1" />
  <defs
     id="defs1">
    <rect
       x="61.844049"
       y="43.15684"
       width="670.49429"
       height="233.85907"
       id="rect1" />
    <filter
       inkscape:label="Blur Double"
       inkscape:menu="Blurs"
       inkscape:menu-tooltip="Overlays two copies with different blur amounts and modifiable blend and composite"
       style="color-interpolation-filters:sRGB;"
       id="filter15"
       x="-0.074632639"
       y="-0.2876428"
       width="1.1492653"
       height="1.5752856">
      <feGaussianBlur
         stdDeviation="5"
         result="fbSourceGraphic"
         id="feGaussianBlur14" />
      <feGaussianBlur
         stdDeviation="0.01"
         in="SourceGraphic"
         result="result1"
         id="feGaussianBlur15" />
      <feComposite
         in2="result1"
         operator="arithmetic"
         in="fbSourceGraphic"
         k2="0.5"
         k3="0.5"
         result="result2"
         id="feComposite15" />
      <feBlend
         in2="fbSourceGraphic"
         mode="normal"
         result="result3"
         id="feBlend15" />
    </filter>
  </defs>
  <g
     inkscape:label="Layer 1"
     inkscape:groupmode="layer"
     id="layer1">
    <g
       id="g105"
       inkscape:label="it-works-title">
      <text
         xml:space="preserve"
         transform="matrix(0.26458333,0,0,0.26458333,-6.3433731,-8.9457832)"
         id="text1"
         style="font-size:53.3333px;font-family:Beats;-inkscape-font-specification:Beats;text-align:center;white-space:pre;shape-inside:url(#rect1);display:inline;fill:#000000;stroke-width:1.13386;-inkscape-stroke:none"
         inkscape:export-filename="header.png"
         inkscape:export-xdpi="96"
         inkscape:export-ydpi="96"><tspan
           x="225.17423"
           y="122.19826"
           id="tspan3"><tspan
             style="font-size:85.3333px;font-family:'HeavyData Nerd Font';-inkscape-font-specification:'HeavyData Nerd Font, Normal';fill:#6c5353"
             id="tspan2">IT WORKS&#10;</tspan></tspan><tspan
           x="88.486782"
           y="228.86488"
           id="tspan5"><tspan
             style="font-size:85.3333px;font-family:'HeavyData Nerd Font';-inkscape-font-specification:'HeavyData Nerd Font, Normal';fill:#6c5353"
             id="tspan4">ON MY COMPUTER</tspan></tspan></text>
      <path
         style="fill:#1a1a1a;stroke:none;stroke-width:0.264305;stroke-opacity:1;-inkscape-stroke:none"
         id="path16"
         d="m 90.646271,70.579679 c -1.456831,0.298778 -1.585388,2.191927 -1.555808,3.411564 0.190608,1.92028 2.32137,3.00312 4.101605,2.925189 1.611478,0.07262 3.76746,-1.096458 3.534893,-2.965224 -0.09371,-1.626929 -0.816586,-3.237614 -2.31364,-3.722759 -1.128229,-0.44682 -2.565305,-0.951955 -3.629595,-0.09368 -0.245918,0.06001 -0.989738,0.959957 -0.221576,0.848559 0.01785,-0.02066 0.909657,-0.941651 1.536738,-0.805622 0.966232,-0.03642 2.220108,0.593404 2.888874,0.907359 0.837004,0.824463 1.556019,2.399449 1.178069,3.780144 -0.752061,1.327301 -2.465019,1.815536 -3.903149,1.536263 -1.459526,-0.241594 -2.924009,-1.35701 -2.73506,-2.985315 -0.09606,-1.104277 0.586567,-2.218826 1.233715,-2.634113 l -0.115039,-0.202011 z" />
      <path
         style="fill:#1a1a1a;stroke:none;stroke-width:0.3;stroke-opacity:1;-inkscape-stroke:none"
         id="path17"
         d="m 102.84656,69.402083 c -1.64937,-0.215973 -2.87732,1.970178 -3.081204,3.447574 -0.731459,2.149787 1.368134,3.45053 3.221054,3.589105 1.78975,0.429593 3.90331,-0.968105 4.18653,-2.781428 0.008,-1.762157 -1.09544,-2.904099 -2.63197,-3.645625 -0.89509,-0.578149 -3.92858,-0.728425 -3.58336,0.366718 1.49097,-0.52403 3.15967,-0.08354 4.42628,0.812109 0.43377,0.458032 1.65126,1.748096 1.02951,2.921308 -0.89512,1.813293 -3.2502,2.273993 -4.95825,1.27946 -2.239176,-0.638121 -1.19377,-4.022482 0.2678,-4.999747 0.089,-0.968864 1.45651,0.07907 1.12361,-0.989474 z" />
      <path
         style="fill:#1a1a1a;stroke:none;stroke-width:0.3;stroke-opacity:1;-inkscape-stroke:none"
         id="path20"
         d="m 92.695743,77.944979 c -1.743388,0.619473 -2.131056,3.13482 -1.420141,4.724367 1.083625,2.9046 4.484054,4.083414 7.365463,4.030663 2.496585,0.324114 5.245205,-1.123661 6.166775,-3.49275 0.86124,-2.137425 -0.63507,-4.216497 -2.26928,-5.466979 -1.72729,-1.181387 -4.005551,-1.499713 -5.960147,-1.031795 -1.380998,0.09018 -1.854122,0.298292 -2.738788,0.677021 -0.370442,0.284419 -1.119594,0.547224 -1.336383,0.647851 -0.331332,0.119674 0.404888,0.435764 0.220554,0.542917 0.05826,-0.128092 0.669414,-0.164258 1.063424,-0.479168 0.660489,-0.394693 0.845259,-0.426618 1.609801,-0.594111 1.190166,-0.192314 2.626689,-0.454327 3.707744,-0.32211 1.754625,0.266017 3.523065,1.0309 4.290225,2.343279 1.29458,1.188043 1.30971,3.422538 0.14188,4.646455 -1.29834,1.527041 -3.33704,2.194924 -5.30251,1.921137 -1.910885,0.04814 -4.042521,-0.671512 -5.348816,-1.860635 -1.331023,-1.255656 -2.02835,-3.513702 -0.859518,-5.104745 -0.143222,-0.746031 1.367158,-0.381505 0.669717,-1.181397 z" />
      <path
         style="fill:#1a1a1a;stroke:none;stroke-width:0.3;stroke-opacity:1;-inkscape-stroke:none"
         id="path21"
         d="m 96.774157,82.991819 c 0.951451,0.589403 3.676853,0.247402 3.375033,-0.877013 -0.961771,0.867049 -2.630437,0.299254 -3.375834,0.626589 l 8.6e-4,0.250449 z" />
      <path
         style="fill:#1a1a1a;stroke:none;stroke-width:0.3;stroke-opacity:1;-inkscape-stroke:none"
         id="path22"
         d="m 107.6901,69.83251 c 0.22474,-1.875433 2.64291,-2.028339 4.12888,-1.936121 2.1237,-0.252507 4.18592,1.892043 3.71762,3.993296 -0.0854,2.097958 -2.13219,3.127759 -3.76242,3.974063 -0.89819,0.879545 -3.53656,-0.18295 -3.50033,0.607337 -0.84617,0.535415 1.05332,-0.500932 -0.379,-0.273532 0.77096,1.517016 3.61929,0.653653 4.92782,-0.115004 1.81331,-0.818387 3.47653,-2.466525 3.42271,-4.585315 0.14007,-2.315656 -2.15256,-4.467146 -4.47527,-4.215797 -1.58881,-0.166751 -3.7513,0.203807 -4.4915,1.732028 -0.18757,0.486691 -0.23347,0.830094 0.41149,0.819045 z" />
      <path
         style="fill:#1a1a1a;stroke:none;stroke-width:0.3;stroke-opacity:1;-inkscape-stroke:none"
         id="path23"
         d="m 88.681022,69.375391 c -1.173357,-2.089752 -3.898717,-1.139246 -5.753185,-0.762044 -1.550843,0.255014 -2.981932,1.214251 -3.100301,2.713742 -0.505622,1.803513 0.196434,3.784714 1.539598,5.055121 1.519693,1.73589 4.571993,1.649731 6.377429,0.428876 0.806157,-0.450776 -0.159503,-0.418177 0.242122,-0.815462 -1.524438,1.01716 -3.757099,1.406943 -5.515249,0.548798 -1.220945,-0.998746 -2.240136,-2.500624 -2.193126,-4.211598 -0.255183,-2.00277 1.521579,-2.858521 3.315615,-3.216549 1.675278,-0.366731 3.642192,-0.572748 4.839062,0.417947 l 0.248006,-0.158854 z" />
      <path
         style="fill:#1a1a1a;stroke:none;stroke-width:0.3;stroke-opacity:1;-inkscape-stroke:none"
         id="path24"
         d="m 92.162182,68.523452 c 1.851652,-0.848502 3.827361,-1.38042 5.873118,-1.545555 1.845383,0.191268 3.86312,-0.53994 5.61855,0.276147 1.19416,0.255759 1.45467,1.259996 1.89053,0.494934 -1.34686,-1.390927 -3.31826,-1.54675 -5.1517,-1.486384 -1.928016,0.334135 -3.914236,0.01863 -5.797096,0.725332 -0.602483,0.389701 -3.013164,0.609549 -2.433402,1.535526 z" />
      <path
         style="fill:#1a1a1a;stroke:none;stroke-width:0.3;stroke-opacity:1;-inkscape-stroke:none"
         id="path25"
         d="m 98.810388,87.862602 c -0.26211,0.78258 1.250202,3.513047 0.890309,2.061518 -0.199345,1.087859 0.477053,-1.341031 -0.392948,-2.148005 l -0.253278,0.01686 -0.244117,0.06961 z" />
      <path
         style="fill:#1a1a1a;stroke:none;stroke-width:0.3;stroke-opacity:1;-inkscape-stroke:none"
         id="path26"
         d="m 100.78053,87.086825 c -0.39307,0.85894 0.52497,4.653934 0.95915,3.097896 -0.69629,0.31947 0.44969,-0.121314 -0.19281,-1.0082 -0.27601,-0.563399 0.2493,-2.304822 -0.76634,-2.089696 z" />
      <path
         style="fill:#1a1a1a;stroke:none;stroke-width:0.3;stroke-opacity:1;-inkscape-stroke:none"
         id="path27"
         d="m 87.302249,101.90027 c -0.642438,-1.85974 -1.286766,-3.729297 -1.307663,-5.662691 0.613001,-0.774919 -0.74422,-1.375219 -0.06056,-1.176003 0.08338,-0.495398 0.01334,-1.118885 -0.374619,-1.108814 0.519749,0.154717 1.505307,-0.606251 2.528505,-0.691784 2.075271,-0.523048 4.148627,-0.94173 6.25693,-1.295314 0.574017,-0.532315 -0.04444,0.919065 1.045912,0.345705 -0.710422,-0.584569 -0.717751,0.952875 -0.0049,0.04821 -0.241097,-1.587039 -1.69754,-0.75415 -3.002742,-0.621925 -2.001818,0.27078 -3.935982,0.902091 -5.889561,1.371362 -0.908553,-0.07937 -1.181002,1.415364 -0.556206,0.873267 -1.082773,-0.644826 -0.100402,1.419661 -0.509925,0.707519 -0.240384,0.812698 0.576288,0.83418 0.06603,0.706766 -0.179954,1.866176 0.168703,3.749682 0.843557,5.519189 0.232216,0.4338 0.212834,1.46403 0.965267,0.98451 z" />
      <path
         style="fill:#1a1a1a;stroke:none;stroke-width:0.3;stroke-opacity:1;-inkscape-stroke:none"
         id="path28"
         d="m 94.820588,92.094425 c 0.136927,2.102894 0.691967,4.196418 1.436971,6.155438 0.714471,0.758192 0.842689,4.276787 2.051272,3.197637 -2.005757,-0.21463 -4.147852,1.26233 -6.312242,1.23396 -1.242385,0.55078 -4.522423,0.22582 -4.669726,1.15176 -0.231874,-0.96662 -0.416883,-2.53 -1.137699,-3.56538 -0.794851,-1.317995 -0.777421,-4.216032 -0.696075,-4.870155 0.638147,-0.533477 1.994345,-1.670156 0.271986,-1.231906 -1.716644,1.383923 -0.851714,3.908101 -0.4816,5.805253 0.953488,1.189488 0.888132,2.693388 1.559554,3.948468 1.621335,0.6849 3.85936,-0.44532 5.685098,-0.56793 1.932307,-0.14691 3.71755,-0.84761 5.532133,-1.46095 -0.958561,-0.15188 1.210219,-0.38711 -0.113572,-0.90685 -0.617424,-1.702707 -1.34786,-3.332672 -1.839479,-5.083778 -0.609197,-0.990355 -0.193814,-3.707304 -1.286621,-3.805567 z" />
      <path
         style="fill:#1a1a1a;stroke:none;stroke-width:0.3;stroke-opacity:1;-inkscape-stroke:none"
         id="path29"
         d="m 87.82473,104.76101 c 1.750118,0.38727 3.508403,-0.93569 5.414626,-0.84298 2.01432,-0.19969 4.106981,-0.26712 6.034755,-0.9006 0.272118,-0.73859 -0.07169,0.21518 -0.215902,-0.37877 0.321437,0.35741 -0.293544,-0.72543 -0.19479,0.28302 0.200916,-0.94573 -2.160797,0.35227 -2.928626,0.0425 -1.969039,0.41507 -4.058781,0.27385 -5.936872,1.02226 -0.584746,0.34339 -2.292186,0.0699 -2.173191,0.77459 z" />
      <path
         style="fill:#1a1a1a;stroke:none;stroke-width:0.3;stroke-opacity:1;-inkscape-stroke:none"
         id="path30"
         d="m 105.24678,100.66045 c -0.28384,-1.721851 -0.39475,-3.509919 0.61127,-5.038053 1.40986,-1.280342 3.85946,0.242643 3.7776,2.049731 0.0126,0.746124 0.45104,3.235942 0.71156,2.452432 -0.73029,0.0726 1.01649,0.34012 0.20639,-0.644012 0.13022,-2.344469 -1.03289,-5.185076 -3.82102,-4.944649 -2.01938,0.552014 -2.51128,3.010699 -2.31795,4.832613 0.18817,0.524946 -0.14128,1.699248 0.83215,1.291938 z" />
      <path
         style="fill:#1a1a1a;stroke:none;stroke-width:0.3;stroke-opacity:1;-inkscape-stroke:none"
         id="path31"
         d="m 105.50937,101.35198 c -0.33685,2.1699 2.7787,0.4654 3.93943,0.41584 0.89772,-0.0102 1.94895,-0.90597 0.78805,-1.07402 -0.29027,-1.01349 -3.43737,0.0781 -2.07259,0.17817 0.85238,-0.0227 2.17826,0.26826 2.13742,0.32111 -0.13444,-0.61919 -2.94759,0.6229 -4.14701,0.67733 -0.59274,0.88309 0.39418,-0.72055 -0.6453,-0.51843 z" />
      <path
         style="fill:#1a1a1a;stroke:none;stroke-width:0.3;stroke-opacity:1;-inkscape-stroke:none"
         id="path32"
         d="m 101.6073,100.62847 c -0.72311,-1.8622 -1.518,-4.097372 -3.810631,-4.433802 -1.23813,-0.69662 -0.786699,1.886182 -0.356008,0.299626 1.091392,0.467631 3.150269,1.734123 3.215099,3.624776 0.2363,0.39091 0.41562,0.99934 0.95154,0.5094 z" />
      <path
         style="fill:#1a1a1a;stroke:none;stroke-width:0.3;stroke-opacity:1;-inkscape-stroke:none"
         id="path33"
         d="m 99.963987,95.934452 c 0.939523,-1.561964 3.190133,-2.087536 4.861083,-1.515175 0.60845,0.531693 1.92544,0.877933 0.73758,-0.14395 -1.60625,-1.099851 -3.62064,-0.305709 -5.18008,0.443619 -0.16022,0.289201 -1.269622,1.023346 -0.418583,1.215506 z" />
      <path
         style="fill:#1a1a1a;stroke:none;stroke-width:0.3;stroke-opacity:1;-inkscape-stroke:none"
         id="path34"
         d="m 101.70261,96.464381 c 1.14171,-0.102251 1.43747,-1.006307 0.0947,-0.549659 -0.56325,-0.03647 -0.20432,0.380258 -0.0947,0.549659 z" />
      <path
         style="fill:#1a1a1a;stroke:none;stroke-width:0.3;stroke-opacity:1;-inkscape-stroke:none"
         id="path35"
         d="m 101.84253,90.725656 c 2.13249,0.07177 3.91968,1.38101 4.75529,3.324287 0.49891,1.147387 2.25348,1.260165 0.69896,0.01171 -0.90681,-1.872477 -2.46081,-3.554778 -4.66756,-3.703824 -0.29457,0.02443 -1.163,-0.403322 -0.78669,0.367826 z" />
      <path
         style="fill:#1a1a1a;stroke:none;stroke-width:0.3;stroke-opacity:1;-inkscape-stroke:none"
         id="path36"
         d="m 99.527274,90.113759 c -0.954082,0.874088 -2.543279,3.923085 -1.367159,4.452083 -0.371378,-0.918702 -0.866538,0.721315 -0.30927,-0.233101 -0.876863,-0.263547 -1.868353,1.707751 -1.287361,2.027624 0.260896,-0.434005 0.944678,-1.425955 0.940248,-1.673631 1.018648,0.0058 -0.266014,-0.207231 0.647809,-0.30721 -0.04841,-1.489555 1.665747,-3.222537 1.375733,-4.265765 z" />
      <path
         style="fill:#1a1a1a;stroke:none;stroke-width:0.3;stroke-opacity:1;-inkscape-stroke:none"
         id="path37"
         d="m 97.717156,95.898411 c 1.276046,-1.440207 -0.448702,-1.129624 -2e-6,3e-6 z" />
      <path
         style="fill:#1a1a1a;stroke:none;stroke-width:0.3;stroke-opacity:1;-inkscape-stroke:none"
         id="path38"
         d="m 89.263301,96.408652 c -1.295873,-0.394669 -0.208936,1.339462 -0.699904,0.258679 -0.03906,0.428741 -0.395382,0.162187 -0.188776,1.21189 0.517686,1.467359 2.885075,0.243049 1.866825,-0.913026 -0.601748,-0.350653 -0.594654,0.486719 -0.912241,0.323847 -0.272747,-0.407855 -0.650364,-0.169953 -0.19279,-0.412667 -1.355005,-0.898 -4.06e-4,2.641045 0.89676,0.766821 -1.26958,-0.243295 0.609059,0.655799 -0.399341,-0.08696 -0.596044,0.57915 -1.099829,-0.943893 -0.393982,-0.724172 -0.7079,-1.050452 -0.71984,1.281576 0.03251,0.350459 -1.52158,-0.181599 1.226351,1.337563 0.835525,-0.192401 -0.734135,0.279503 0.227013,0.266185 -0.324877,0.944826 -0.66563,0.735084 -1.408043,-0.710764 -0.953043,-0.81223 0.0442,-0.801526 -0.09227,0.630463 -0.08141,-0.531967 -0.854478,0.460808 1.353117,0.705304 0.514742,-0.183101 z" />
      <path
         style="fill:#1a1a1a;stroke:none;stroke-width:0.3;stroke-opacity:1;-inkscape-stroke:none"
         id="path39"
         d="m 88.9681,99.4436 c 1.234074,-0.173672 -0.11216,-0.477146 0,0 z" />
      <path
         style="fill:#1a1a1a;stroke:none;stroke-width:0.3;stroke-opacity:1;-inkscape-stroke:none"
         id="path40"
         d="m 89.832388,99.280463 c 1.123608,0.02272 2.477645,-1.154195 0.492508,-0.587738 -0.190184,0.151318 -1.0325,0.128277 -0.492508,0.587738 z" />
      <path
         style="fill:#1a1a1a;stroke:none;stroke-width:0.3;stroke-opacity:1;-inkscape-stroke:none"
         id="path41"
         d="m 94.331712,91.833318 c -0.204767,1.98114 0.349976,4.070042 1.445387,5.772193 0.582633,1.577338 1.197176,3.390389 2.596746,4.385989 -0.228326,-1.11581 -1.724661,-2.380527 -1.924763,-3.793361 -0.93109,-1.664751 -1.780551,-3.449731 -1.887531,-5.361119 -0.222457,-0.266561 0.45246,-1.091155 -0.229839,-1.003702 z" />
      <path
         style="fill:#1a1a1a;stroke:none;stroke-width:0.3;stroke-opacity:1;-inkscape-stroke:none"
         id="path42"
         d="m 87.634341,105.01703 c 0.471271,1.7054 2.836338,0.18151 4.194951,0.27597 2.114923,-0.31576 4.111971,-1.23952 6.247534,-1.39947 1.131372,0.37101 1.790856,-2.03213 0.861907,-1.10139 0.466532,0.0652 -1.082037,0.90742 -1.717975,0.72467 -2.136536,0.25057 -4.084955,1.24256 -6.232246,1.42205 -1.571251,0.0817 -2.883083,1.30151 -3.354103,0.0784 z" />
      <circle
         id="path43"
         style="fill:#1a1a1a;stroke:#000000;stroke-width:0.264583"
         cx="76.212265"
         cy="67.781532"
         r="0.0014658753" />
      <circle
         style="fill:#1a1a1a;stroke:none;stroke-width:0.3;stroke-opacity:1;-inkscape-stroke:none"
         id="path44"
         cx="93.682152"
         cy="73.920296"
         r="0.87560064" />
      <circle
         style="fill:#1a1a1a;stroke:none;stroke-width:0.3;stroke-opacity:1;-inkscape-stroke:none"
         id="circle44"
         cx="103.03313"
         cy="73.679329"
         r="0.87560064" />
      <path
         style="fill:#1a1a1a;stroke:none;stroke-width:0.3;stroke-opacity:1;-inkscape-stroke:none"
         id="path45"
         d="m 109.68313,71.360111 c 0.16719,0.13793 0.0506,0.0457 0.25535,0.194837 0.2676,0.194926 0.12307,0.09541 0.4137,0.295523 0.0764,0.05263 0.15446,0.102963 0.23004,0.156798 0.081,0.05766 0.15966,0.118403 0.23949,0.177604 0.14477,0.119264 0.31051,0.211135 0.45606,0.329372 0.0626,0.05087 0.12019,0.107746 0.17783,0.1642 0.0986,0.09656 0.16501,0.150416 0.20706,0.280747 0.0122,0.03774 0.009,0.07878 0.0137,0.118179 -0.0211,0.08952 -0.0682,0.307004 -0.10795,0.366477 -0.0631,0.09437 -0.15928,0.161737 -0.23892,0.242604 -0.0117,0.01482 0.19778,0.179938 0.20946,0.165127 v 0 c 0.0829,-0.09264 0.16329,-0.18764 0.24879,-0.277906 0.32417,-0.342206 0.18647,-0.10084 0.34857,-0.525227 -0.01,-0.08415 -0.006,-0.171135 -0.0297,-0.252452 -0.0751,-0.256429 -0.27753,-0.434411 -0.47093,-0.601443 -0.22022,-0.190185 -0.21448,-0.178906 -0.45501,-0.358007 -0.41035,-0.272667 -0.81862,-0.565764 -1.29254,-0.718291 -0.0171,-0.0145 -0.22209,0.227362 -0.20499,0.241858 z" />
      <path
         style="fill:#1a1a1a;stroke:none;stroke-width:0.3;stroke-opacity:1;-inkscape-stroke:none"
         id="path46"
         d="m 86.931023,72.624097 c -0.05303,0.02225 -0.108519,0.03937 -0.159084,0.06677 -0.35764,0.193786 -0.653436,0.497972 -0.84124,0.858742 -0.04659,0.0895 -0.07666,0.186672 -0.114988,0.280009 -0.03754,0.244255 -0.0725,0.50977 0.09329,0.720111 0.04505,0.05716 0.109752,0.09561 0.164627,0.143423 0.0049,0.0078 0.114461,-0.06133 0.109577,-0.06908 v 0 c -0.01805,-0.04174 -0.04513,-0.08064 -0.0541,-0.125212 -0.0082,-0.04063 -0.0028,-0.08337 0.0039,-0.12428 0.02694,-0.166314 0.05548,-0.180774 0.143405,-0.334277 0.04623,-0.06853 0.09029,-0.138576 0.138686,-0.205595 0.224351,-0.310665 0.48664,-0.5941 0.789795,-0.82927 0.02696,-0.01937 -0.246891,-0.400709 -0.273857,-0.381344 z" />
      <path
         style="fill:#1a1a1a;stroke:none;stroke-width:0.3;stroke-opacity:1;-inkscape-stroke:none"
         id="path47"
         d="m 105.35814,91.637172 c 0.22775,0.115554 0.48095,0.158199 0.72858,0.208695 0.11802,0.0159 0.22403,0.07343 0.33412,0.115425 0.17787,0.07508 0.36906,0.108262 0.56052,0.122658 0.19969,0.01799 0.4015,0.02458 0.60137,0.0067 0.0986,-0.01471 0.17916,-0.02476 0.28038,-0.05548 0.0702,-0.02132 0.16496,-0.105765 0.22452,-0.152622 0.11521,-0.05083 0.24068,-0.07404 0.36491,-0.09075 0.0217,-0.0026 0.0442,-0.0013 0.0651,-0.0078 0.0174,-0.0053 -0.0392,0.01445 -0.0543,0.0044 -0.002,-0.0016 0.0433,-0.0059 0.0762,-0.01765 0.004,-0.0016 0.0142,-0.0031 0.0113,-0.0063 -0.008,-0.009 -0.0215,-0.01119 -0.0322,-0.01677 0.0383,-0.133774 0.0766,-0.267547 0.11486,-0.401318 -0.005,0.0013 -0.018,-1.66e-4 -0.0151,0.0042 0.007,0.01082 0.0213,0.01452 0.0319,0.02177 0.0172,0.108299 0.03,0.2174 0.0517,0.324895 0.001,0.0052 0.0138,-0.0057 0.0117,-0.01056 -0.0124,-0.02816 -0.0336,-0.05155 -0.0504,-0.07732 -0.0166,-0.02535 -0.0332,-0.05071 -0.0498,-0.07607 0.001,5.29e-4 0.0103,-0.0172 0.009,-0.01786 v 0 c -0.0281,-0.02869 -0.0562,-0.05738 -0.0843,-0.08607 -0.0299,-0.02024 -0.056,-0.04783 -0.0897,-0.06074 -0.011,-0.0042 -0.0318,0.0021 -0.0325,0.01392 -0.007,0.116845 -0.01,0.235611 0.009,0.351107 0.003,0.02043 0.0352,0.02209 0.054,0.03075 0.0106,0.0049 0.0278,0.01968 0.0335,0.0096 0.072,-0.127389 0.12387,-0.265137 0.1858,-0.397706 -0.14258,-0.06577 -0.28368,-0.02907 -0.4365,-0.0086 -0.18046,0.0395 -0.35062,0.09141 -0.4936,0.214566 -0.025,0.01789 -0.0506,0.04388 -0.0823,0.04794 -0.0102,0.0013 -0.0406,0.0051 -0.0306,0.0028 0.0421,-0.0099 0.13186,-0.01852 0.006,-0.0048 -0.18239,0.0091 -0.36467,0.01744 -0.5474,0.01519 -0.0806,-0.0061 -0.16308,-0.0094 -0.24309,-0.02072 -0.0786,-0.01109 -0.15532,-0.03469 -0.23359,-0.04771 -0.0845,-0.0266 -0.16945,-0.05296 -0.25532,-0.0748 -0.0185,-0.0047 -0.0375,-0.007 -0.0558,-0.01233 -0.0193,-0.0056 -0.0377,-0.0136 -0.0566,-0.0204 -0.23932,-0.07946 -0.47795,-0.171 -0.73188,-0.190492 -0.0255,-0.01273 -0.20529,0.347483 -0.17982,0.360199 z" />
      <path
         style="fill:#1a1a1a;stroke:none;stroke-width:0.3;stroke-opacity:1;-inkscape-stroke:none"
         id="path49"
         d="m 108.29933,91.761317 c 0.3065,-0.106572 0.58098,-0.281879 0.8632,-0.437997 0.11702,-0.07002 0.23142,-0.144817 0.32724,-0.242967 0.0633,-0.06485 0.0921,-0.108717 0.14625,-0.181456 0.1797,-0.255799 0.29025,-0.549982 0.3768,-0.84808 0.0942,-0.313711 0.12377,-0.641138 0.12798,-0.967248 -0.005,-0.104317 -0.005,-0.208534 -0.0108,-0.312771 -0.003,-0.0456 -0.005,-0.08627 -0.0184,-0.129689 -0.1516,0.0062 -0.30372,0.0046 -0.45481,0.01844 -0.01,7.94e-4 -0.003,0.03596 0.003,0.02861 0.005,-0.0064 0.002,-0.02352 0.0106,-0.02265 0.30513,0.03271 0.24671,0.03728 0.16202,0.05028 -0.006,-0.0011 -0.0116,-0.0019 -0.0173,-0.0029 -0.001,-5.3e-4 -0.0106,0.01701 -0.009,0.01767 v 0 c 0.004,0.0019 0.007,0.0037 0.0112,0.0055 10e-4,0.0086 -0.004,0.02241 0.004,0.02569 0.0791,0.03268 0.15993,0.06735 0.24498,0.07694 0.004,5.29e-4 0.0619,-0.126117 0.0521,-0.128434 -0.14533,-0.03451 -0.29596,-0.0407 -0.44394,-0.06105 -0.0158,0.03721 -0.016,0.07695 -0.0196,0.116792 -0.009,0.10096 -0.013,0.202126 -0.024,0.30294 -0.0197,0.290375 -0.0382,0.581512 -0.11459,0.863962 -0.0776,0.254098 -0.15709,0.508601 -0.28749,0.741675 -0.0391,0.05913 -0.0792,0.122439 -0.1362,0.166648 -0.0654,0.05072 -0.14762,0.07906 -0.22116,0.114348 -0.0831,0.04161 -0.16769,0.08008 -0.25025,0.122666 -0.20719,0.106849 -0.40692,0.234569 -0.5784,0.393104 -0.0205,0.01823 0.23717,0.308166 0.25767,0.289944 z" />
      <path
         style="fill:#1a1a1a;stroke:none;stroke-width:0.3;stroke-opacity:1;-inkscape-stroke:none"
         id="path50"
         d="m 109.96675,88.597432 c -0.0164,-0.243949 -0.099,-0.494004 -0.27585,-0.670523 -0.0325,-0.03247 -0.0717,-0.05752 -0.10757,-0.08628 -0.12357,-0.08325 -0.27072,-0.102288 -0.40823,-0.149362 -0.0865,-0.02962 -0.10677,-0.04019 -0.19163,-0.0765 -0.23049,-0.142925 -0.46046,-0.286988 -0.68769,-0.435051 -0.0812,-0.05755 -0.17765,-0.09721 -0.25075,-0.166389 -0.0218,-0.02061 -0.0323,-0.03935 -0.0486,-0.06392 -0.0568,-0.109533 -0.10179,-0.225378 -0.14159,-0.342086 -0.0359,-0.131669 1.4e-4,-0.256651 0.0496,-0.378952 0.0244,-0.0695 0.0773,-0.115641 0.12955,-0.163533 -0.0316,0.02024 -0.17841,-0.01445 -0.0772,0.0033 0.14248,0.02823 0.28952,0.03586 0.43461,0.03945 0.005,-0.01341 0.21559,0.02006 0.0845,0.003 -0.0189,-0.0024 0.0397,0.0026 0.0559,0.0127 0.0445,0.06836 0.0784,0.143544 0.12589,0.210695 0.0791,0.106087 0.23773,0.190169 0.35466,0.08211 0.0135,-0.01246 0.0206,-0.03043 0.031,-0.04564 -5.3e-4,-0.04454 -0.0285,-0.0857 -0.0301,-0.130217 -5.3e-4,-0.01228 0.006,-0.02373 0.01,-0.0356 10e-4,-0.0016 -0.0207,-0.01561 -0.0217,-0.01408 v 0 c -0.011,0.0063 -0.0206,0.01646 -0.0331,0.01897 -0.0468,0.0094 -0.0831,-0.0063 -0.12752,-0.01812 -0.005,-0.0011 -0.0162,0.0021 -0.016,-0.0035 1.9e-4,-0.0069 0.01,-0.01267 0.0165,-0.01267 0.0367,-1.4e-5 0.074,0.0027 0.10935,0.01265 0.0103,0.0029 0.014,0.01609 0.0211,0.024 0.001,0.0013 0.004,0.0049 0.004,0.0034 -0.001,-0.0048 -0.004,-0.009 -0.006,-0.01344 -0.034,-0.115549 -0.0811,-0.226118 -0.16342,-0.316315 -0.0213,-0.01839 -0.0407,-0.03926 -0.064,-0.05518 -0.12493,-0.08565 -0.28503,-0.07356 -0.42906,-0.08116 -0.0659,-0.0011 -0.13178,2.65e-4 -0.19766,-0.0021 -0.0158,-5.29e-4 -0.0515,-0.01733 -0.0473,-0.0021 0.004,0.01601 0.0339,0.0016 0.049,0.0084 0.009,0.004 -0.0196,2.64e-4 -0.0293,5.29e-4 -0.0507,-0.0056 -0.0948,-0.01648 -0.1488,-0.02016 -0.0455,-0.0031 -0.0906,0.01773 -0.13362,0.02829 -0.13938,0.06444 -0.24216,0.175032 -0.31637,0.308816 -0.0152,0.03374 -0.033,0.06647 -0.0457,0.10123 -0.0636,0.173333 -0.0686,0.358965 -0.0292,0.538133 0.0375,0.149836 0.0928,0.293447 0.15948,0.432776 0.088,0.164955 0.20628,0.305245 0.35775,0.416552 0.24301,0.173908 0.49107,0.344038 0.7658,0.464709 0.18247,0.08261 0.35878,0.149355 0.56229,0.14269 0.0832,0.04043 0.093,0.07126 0.13402,0.15743 0.0544,0.114302 0.10067,0.232531 0.15322,0.347694 0.005,0.02973 0.42576,-0.04475 0.4205,-0.07449 z" />
      <path
         style="fill:#1a1a1a;stroke:none;stroke-width:0.3;stroke-opacity:1;-inkscape-stroke:none"
         id="path51"
         d="m 109.08309,85.961298 c 0.009,-0.243385 -0.0532,-0.479816 -0.0978,-0.716759 -0.0247,-0.119612 0.007,-0.240188 0.0202,-0.359396 0.0127,-0.153988 0.003,-0.308113 0.002,-0.462161 0.006,0.01397 -0.006,-0.07443 -5.3e-4,-0.06782 0.009,0.01035 -0.002,0.01587 0.0229,-0.0019 0.0554,-0.04587 0.11292,-0.08803 0.1723,-0.128569 0.0408,-0.01953 0.082,-0.04313 0.12751,-0.04905 0.0343,0.02109 -0.0729,-0.0013 -0.0859,-0.0037 -0.002,-5.29e-4 -0.003,-0.0089 -8e-4,-0.0075 0.005,0.0038 0.009,0.0093 0.0138,0.01392 0.0667,0.08518 0.11816,0.181248 0.16766,0.277133 0.0519,0.115662 0.0551,0.238606 0.0579,0.363053 0.008,0.155686 0.0183,0.3199 0.0951,0.459679 0.0124,0.02265 0.0287,0.04295 0.0431,0.06442 0.019,0.01958 0.0356,0.04176 0.057,0.05871 0.082,0.06509 0.20601,0.0892 0.29902,0.03424 0.0147,-0.0087 0.0267,-0.02109 0.0401,-0.03162 0.0111,-0.23576 0.0427,-0.189916 -0.0537,-0.272344 -0.005,-0.0044 -0.0169,-0.019 -0.0234,-0.02159 0.002,0.0013 0.003,0.0032 0.005,0.0041 0.002,7.94e-4 -0.001,-0.01627 -0.0116,-0.05286 -0.009,-0.03056 -0.0153,-0.04922 -0.0254,-0.07978 -0.0415,-0.130463 -0.0733,-0.263694 -0.11146,-0.395073 -0.002,-0.0048 -0.0266,-0.106043 -0.0332,-0.102182 -0.005,0.0032 -0.002,0.01251 -0.003,0.01857 -0.008,0.0287 -0.01,0.02958 -0.0218,0.0542 0.0839,-0.05549 0.12929,-0.151003 0.17393,-0.237882 0.0165,-0.03766 0.0177,-0.0423 0.0355,-0.07598 0.007,-0.0136 0.0299,-0.05179 0.0281,-0.03652 -0.0158,0.02151 0.0296,-0.0029 0.0365,-0.0029 0.0117,1.41e-4 0.0157,0.0098 0.0209,0.01746 -0.0315,-0.0016 -0.063,-0.0061 -0.0945,-0.0046 -0.005,2.33e-4 0.0149,0.0047 0.0389,0.02622 0.0401,0.03578 0.0769,0.07713 0.1146,0.115422 0.0752,0.08471 0.15794,0.163568 0.22933,0.251598 0.0519,0.06252 0.0521,0.144396 0.0593,0.221353 0.008,0.14384 0.0325,0.267787 0.0833,0.402381 0.0306,0.07183 0.0727,0.136414 0.13553,0.183779 0.0118,0.0089 0.0241,0.03183 0.0369,0.0245 0.10367,-0.05928 0.19297,-0.140745 0.28945,-0.211119 -0.0108,-0.09101 -0.0202,-0.182002 -0.0349,-0.272503 -0.0156,-0.114564 -0.0156,-0.230544 -0.0225,-0.34594 3e-5,-0.04381 -0.003,-0.08731 -2.5e-4,-0.131037 0.001,-0.01926 0.002,-0.01484 0.003,-0.007 -2.6e-4,0.0011 -0.002,0.0041 -7.9e-4,0.0034 0.0177,-0.01302 0.0663,-0.103535 0.0815,-0.128239 0.01,-0.01664 0.0681,-0.100319 0.088,-0.101356 0.003,-1.51e-4 -0.003,0.0051 -0.004,0.0076 -0.0641,0.05262 -0.10926,0.02162 -0.19435,0.0013 -0.002,-5.29e-4 -0.005,-0.0051 -0.003,-0.0046 0.0191,0.0052 0.0334,0.02135 0.0498,0.03246 0.10404,0.06459 0.22295,0.03398 0.33508,0.04598 0.0399,0.0274 0.0372,0.02252 -0.0875,-0.0062 -0.002,-2.65e-4 -0.0246,-0.02609 -0.0295,-0.03183 0.026,0.06639 0.0491,0.133818 0.077,0.199456 0.0223,0.05982 0.0592,0.113282 0.0815,0.172961 0.0117,0.0638 0.0167,0.128609 0.0239,0.19309 -1.1e-4,0.08635 0.007,0.172815 -0.007,0.258292 -0.0376,0.08647 -0.0892,0.165534 -0.12788,0.251865 -0.045,0.103092 -0.0787,0.211433 -0.0799,0.324479 -0.0174,-0.08099 0.0154,0.127394 0.0131,0.09538 -0.006,-0.08803 -0.0116,-0.04081 -0.009,-0.07825 2.7e-4,-0.0033 0.003,0.0062 0.004,0.009 -0.0119,0.02809 -0.01,0.05992 -0.0219,0.08788 -0.009,0.0372 -0.0159,0.07401 -0.0152,0.112329 0.0175,-0.01923 -0.0123,0.02801 -0.0135,0.02967 -0.0235,0.05542 -0.052,0.108325 -0.0798,0.161655 -0.0492,0.08625 -0.0754,0.181417 -0.10306,0.27578 -0.001,0.0088 -0.003,0.01744 -0.004,0.02625 -0.004,0.035 -1.9e-4,0.01122 0.004,7.94e-4 0.0146,-0.03612 0.0317,-0.05544 -0.004,-0.02151 -0.10523,0.115512 -0.18886,0.247759 -0.26718,0.382323 -0.0509,0.08646 -0.0938,0.177218 -0.13052,0.27051 -0.0152,0.0386 -0.036,0.08151 -0.0319,0.12391 0.13414,-0.05944 0.44824,0.156702 0.3755,0.150566 -0.11781,-0.0099 -0.23401,-0.04525 -0.35219,-0.04197 -0.0173,5.29e-4 0.002,0.03444 0.003,0.05166 0.0317,0.124812 0.0255,0.243552 0.0218,0.370655 -0.0136,0.107945 -0.007,0.216464 -0.006,0.324742 5.2e-4,0.04147 -0.002,0.08299 -2.7e-4,0.124425 0.004,0.09437 0.0169,0.155882 0.0317,0.248703 0.0345,0.19367 0.0951,0.38108 0.1545,0.568071 0.11417,0.359434 -0.0135,-0.01976 0.11024,0.341284 0.019,0.05469 0.0401,0.108696 0.057,0.164086 0.0171,0.05629 0.0297,0.113872 0.0449,0.170699 0.0223,0.08319 0.0634,0.225192 0.0815,0.311626 0.01,0.04763 0.0354,0.217339 0.0434,0.26915 0.003,0.02901 0.0188,0.189011 0.0184,0.220895 -5.3e-4,0.03626 -0.015,0.07229 -0.0105,0.108281 0.006,0.05206 0.0515,0.09975 0.0427,0.151477 -0.008,0.04821 -0.0589,0.07812 -0.0883,0.117184 -0.004,0.0069 0.0938,0.06861 0.0982,0.06167 v 0 c 0.38048,-0.448947 -0.2412,0.252852 0.29486,-0.223631 0.0412,-0.03662 0.0591,-0.09336 0.083,-0.143018 0.0729,-0.151262 0.0619,-0.154421 0.0868,-0.313415 0.002,-0.05636 0.007,-0.11276 0.004,-0.169082 -0.014,-0.30648 -0.11936,-0.597217 -0.22301,-0.882221 -0.0223,-0.05725 -0.0432,-0.115057 -0.0669,-0.171746 -0.0883,-0.211455 -0.19577,-0.416444 -0.25351,-0.639355 -0.0275,-0.163238 -0.008,-0.03869 -0.0303,-0.208767 -0.005,-0.0366 -0.0121,-0.0729 -0.0151,-0.109681 -0.009,-0.105441 4e-5,-0.212502 -0.0159,-0.317605 -0.006,-0.144032 -0.0176,-0.288682 -0.0453,-0.430332 -0.005,-0.01704 8e-4,-0.04355 -0.0153,-0.05115 -0.11768,-0.05556 -0.24167,-0.09936 -0.36817,-0.129889 -0.0144,-0.0035 -0.0198,0.02223 -0.0288,0.0341 -0.008,0.01035 -0.0316,0.0245 -0.0214,0.03247 0.31267,0.243639 0.23471,0.293526 0.35948,0.194879 0.11179,-0.09619 0.16228,-0.246275 0.2307,-0.372539 0.0565,-0.108035 0.11087,-0.219371 0.18878,-0.313994 0.0436,-0.05197 0.071,-0.09278 0.0946,-0.156806 0.0223,-0.07442 0.07,-0.139644 0.0964,-0.212608 0.0328,-0.07463 0.0614,-0.151403 0.0794,-0.231085 0.008,-0.04513 0.002,-0.05348 0.008,-0.05831 0.0246,-0.04185 0.0266,-0.09278 0.0344,-0.139491 7.9e-4,-0.02082 0.002,-0.05674 -2.2e-4,-0.05722 -0.004,-0.0011 -0.006,0.02156 -0.005,7.94e-4 0.0285,-0.04229 0.0117,-0.0984 0.008,-0.144555 -0.002,-0.02405 0.019,0.13257 0.007,0.07208 8e-4,0.0026 -1.1e-4,0.0089 0.002,0.0078 0.007,-0.003 0.0575,-0.123896 0.0613,-0.132416 0.008,-0.01839 0.0162,-0.03682 0.0243,-0.05523 0.0556,-0.117549 0.12052,-0.233167 0.14906,-0.360947 0.0207,-0.124709 0.0244,-0.25145 5.3e-4,-0.376193 -0.0123,-0.08815 -0.0314,-0.17499 -0.0553,-0.260649 -0.0216,-0.07192 -0.0509,-0.140531 -0.0819,-0.208822 -0.034,-0.08132 -0.0714,-0.161383 -0.1101,-0.240562 -0.0948,-0.154702 -0.18517,-0.217051 -0.38286,-0.203475 -2.7e-4,1.8e-5 -0.0674,0.0035 -0.0701,0.0036 -0.007,5.5e-5 -0.014,-5.29e-4 -0.0209,-0.0013 -0.005,-5.29e-4 -0.0208,-0.0034 -0.0157,-0.0021 0.0997,0.02334 0.10575,-0.01095 0.0955,0.0291 0.003,0.02945 -0.0248,-0.01151 -0.0435,-0.0173 -0.13468,-0.04185 -0.17181,-0.05638 -0.28773,-0.0029 -0.098,0.06168 -0.16763,0.136787 -0.22004,0.240945 -0.0236,0.04536 -0.037,0.07791 -0.0732,0.11447 -0.0588,0.104904 -0.0789,0.219344 -0.0722,0.339306 0.003,0.134078 0.0233,0.257022 0.0529,0.38729 0.0143,0.09011 0.0336,0.179072 0.0567,0.267345 0.10023,-0.04562 0.19757,-0.09824 0.3007,-0.136869 0.0164,-0.0062 0.036,0.05758 0.0115,0.025 -0.005,-0.0068 -0.008,-0.01482 -0.0124,-0.02223 -0.0344,-0.102862 -0.0284,-0.215871 -0.0404,-0.32263 -0.0135,-0.145777 -0.0373,-0.290155 -0.12542,-0.411768 -0.0781,-0.096 -0.17132,-0.177054 -0.25139,-0.271346 -0.069,-0.07286 -0.14031,-0.142177 -0.22737,-0.193752 -0.0209,-0.01238 -0.0413,-0.02708 -0.0648,-0.0332 -0.0534,-0.01392 -0.10898,-0.01754 -0.16347,-0.0263 -0.13128,0.02498 0.0241,-0.0071 -0.0856,0.02246 -0.0445,0.01199 -0.0899,0.01434 -0.12795,0.04557 -0.0768,0.05957 -0.1324,0.135726 -0.17706,0.221898 -0.0257,0.0503 -0.0486,0.102566 -0.0893,0.142896 -0.0128,0.01503 -0.0276,0.02859 -0.0384,0.04511 -0.0591,0.0902 -0.0597,0.201465 -0.0434,0.303919 0.0313,0.147379 0.0837,0.289193 0.15051,0.424252 0.029,0.06848 0.0532,0.140001 0.0921,0.203512 0.006,0.0089 0.0117,0.01834 0.0188,0.02655 0.008,0.0092 0.0938,0.08936 0.0969,0.07995 0.0208,-0.06338 0.0263,-0.130831 0.0394,-0.196247 0.005,-0.004 0.034,-0.02714 0.04,-0.02601 0.0261,0.0049 0.0873,0.01053 0.0726,0.03264 -0.002,0.0028 -0.006,0.0027 -0.009,0.0041 -0.0647,-0.108521 -0.045,-0.27432 -0.0623,-0.395399 -0.0163,-0.157943 -0.0303,-0.318897 -0.0989,-0.464666 -0.0537,-0.126767 -0.11337,-0.252524 -0.1979,-0.362011 -0.10623,-0.116565 -0.1747,-0.161327 -0.34674,-0.126016 -0.0783,0.01934 -0.15475,0.04611 -0.22392,0.08838 -0.0794,0.04634 -0.15277,0.103489 -0.21803,0.168283 -0.0905,0.09278 -0.12182,0.178975 -0.12462,0.307602 0.008,0.145365 0.0142,0.290944 0.0118,0.436504 0.002,0.134734 -0.008,0.267566 -0.0249,0.401223 -0.004,0.251296 0.0262,0.502774 0.10715,0.741777 0.003,0.02545 0.36267,-0.01429 0.35986,-0.03974 z" />
      <path
         style="fill:#1a1a1a;stroke:none;stroke-width:0.3;stroke-opacity:1;-inkscape-stroke:none"
         id="path52"
         d="m 97.923732,92.066244 c -0.248295,0.0367 -0.491003,0.102756 -0.732805,0.168733 -0.251622,0.06261 -0.389742,0.221342 -0.5705,0.393043 -0.351976,0.378577 -0.693166,0.767194 -1.030579,1.158822 -0.04914,0.05629 -0.09879,0.112149 -0.14742,0.168881 -0.04554,0.05313 -0.121603,0.13212 -0.150636,0.204618 -0.0026,0.0066 0.0011,0.01582 0.0065,0.02027 0.103732,0.08308 0.201805,0.176196 0.318399,0.23999 0.02373,0.01299 0.05188,-0.01548 0.07782,-0.0232 0.0327,-0.01267 0.06539,-0.02532 0.09809,-0.03799 0.01402,-0.01929 0.02109,-0.04647 0.04203,-0.05789 0.04799,-0.02619 0.104088,-0.03353 0.156131,-0.05029 0.0081,0.0024 0.04111,-0.111877 0.03303,-0.114213 v 0 c -0.05367,-0.02442 -0.103558,-0.05995 -0.161001,-0.07323 -0.211765,-0.04895 -0.230868,-0.02651 -0.412012,0.01648 -0.204383,0.123346 -0.223536,0.07925 0.07976,0.402815 0.02056,0.02193 0.05963,-0.0097 0.08813,-0.01923 0.196366,-0.06602 0.324736,-0.195226 0.474967,-0.333124 0.06575,-0.06755 0.133733,-0.132995 0.197254,-0.202647 0.286335,-0.313965 0.528429,-0.663236 0.779275,-1.005126 0.04756,-0.06739 0.119938,-0.187367 0.2105,-0.213338 0.04051,-0.01162 0.0847,-0.007 0.125058,-0.0186 0.264776,-0.03294 0.530071,-0.08868 0.766855,-0.216675 0.02885,-0.0176 -0.220022,-0.425685 -0.248878,-0.408085 z" />
      <path
         style="fill:#1a1a1a;stroke:none;stroke-width:0.3;stroke-opacity:1;-inkscape-stroke:none"
         id="path53"
         d="m 110.97986,90.280314 c -0.0172,0.229643 0.0181,0.458732 0.0128,0.688311 -0.0171,-0.03821 0.047,-0.05384 0.0479,-0.08107 2.7e-4,-0.0094 -0.0191,-0.0016 -0.0282,5.29e-4 -0.0496,0.01098 -0.0666,0.02553 -0.11235,0.05125 -0.11431,0.08723 -0.18701,0.213696 -0.2557,0.337473 -0.006,0.007 -0.0217,0.04941 -0.0391,0.05125 -0.006,5.29e-4 -0.003,-0.0082 -0.0264,-0.0021 -0.11057,0.04887 -0.1929,0.138938 -0.28288,0.216315 -0.066,0.05624 -0.11935,0.130474 -0.19597,0.173017 -0.009,-0.0033 0.012,-0.01688 0.0213,-0.01844 0.0384,-0.0064 0.0774,-0.0081 0.11612,-0.01238 0.003,-2.65e-4 -0.007,-1.11e-4 -0.01,5.29e-4 -0.0632,0.0136 -0.12615,0.02817 -0.18923,0.04225 -0.0476,0.01939 -0.095,0.04107 -0.14199,0.06259 -0.0568,0.02938 -0.11205,0.06171 -0.16495,0.09765 -0.0352,0.02437 -0.0684,0.04417 -0.10853,0.0582 -0.0597,0.01881 -0.11587,0.04671 -0.1719,0.07426 -0.0777,0.03709 -0.15132,0.08176 -0.22812,0.120401 -0.0668,0.04022 -0.13791,0.07115 -0.20875,0.103058 -0.0447,0.0177 -0.0898,0.03417 -0.13358,0.0542 -0.0742,0.03577 -0.14836,0.0718 -0.22024,0.112003 -0.0613,0.03463 -0.12128,0.0717 -0.18199,0.107469 -0.0511,0.02808 -0.10077,0.05854 -0.14682,0.09431 -0.005,-0.0016 -0.0753,0.07561 -0.0562,0.03948 -0.007,-0.0301 -0.0764,0.0046 -0.0937,0.01058 -0.0608,0.01839 -0.11442,0.05351 -0.17274,0.07715 -0.0281,0.02053 -0.0537,0.01675 -0.0849,0.01871 -0.002,9.5e-5 -0.009,5.29e-4 -0.007,2.64e-4 0.3089,-0.0397 -0.0122,-0.0055 -0.0787,0.02665 -0.004,0.0019 -0.0472,0.0297 -0.0326,0.0099 0.0385,-0.03645 0.004,-0.0073 0.13134,-0.02574 0.003,-2.64e-4 -0.005,7.94e-4 -0.008,0.0011 -0.008,0.0011 -0.11544,0.02016 -0.16344,0.02183 0.25593,-0.01704 0.0841,-0.01696 0.0252,-0.01482 -0.13209,0.0016 -0.25675,0.03466 -0.37608,0.08711 -0.009,0.0044 -0.0179,0.0091 -0.0271,0.01315 -0.0864,0.03815 0.0202,-0.04623 0.12198,-0.01426 -0.058,-0.0039 -0.12097,-0.01752 -0.18027,-0.02585 -0.10447,-0.01357 -0.20565,-0.0062 -0.31024,0.01164 -0.0188,0.0032 -0.0635,0.02716 -0.0812,0.03606 -0.0283,0.0114 -0.0481,0.03484 -0.0718,0.05228 -0.003,0.0019 0.004,-0.0052 0.006,-0.0074 0.01,-0.0092 0.0172,-0.02246 0.0299,-0.02651 0.0408,-0.01304 0.0842,-0.01564 0.1263,-0.02344 -0.0806,-0.004 -0.16111,-0.0024 -0.24178,-0.0013 -0.11442,-0.0011 -0.2285,0.0068 -0.34275,0.01093 -0.002,0.0019 -0.12715,-0.0021 -0.11179,0.01752 0.005,0.0059 0.0111,0.0099 0.0167,0.01487 0.0578,0.501981 0.0482,0.215699 0.006,0.170974 -0.0218,-0.02304 -0.0493,-0.04 -0.0739,-0.06 8e-4,-0.0021 -0.0277,-0.01384 -0.0285,-0.01183 v 0 c -0.22583,0.02564 -0.15283,0.01069 -0.14941,0.3054 0.0643,0.04212 0.13398,0.06258 0.21124,0.06591 0.12025,0.0099 0.24028,0.01709 0.36099,0.0089 0.0941,-0.0035 0.18804,-0.0054 0.28164,-0.01667 0.0559,-0.0093 0.11292,-0.01318 0.16762,-0.02787 0.0845,-0.0227 0.0319,-0.0259 0.08,-0.04836 0.005,-0.0024 -0.007,0.0168 -10e-4,0.01643 0.003,0.004 0.0156,0.0098 0.0107,0.01061 -0.22535,0.03676 -0.12251,0.0059 -0.0808,0.0062 0.0103,7.2e-5 0.0206,5.3e-4 0.031,7.94e-4 0.073,0.0039 0.1458,0.01482 0.21798,0.02598 0.12005,0.01323 0.21249,-0.02275 0.31862,-0.06111 0.0232,-0.0062 0.0459,-0.01273 0.0697,-0.01627 0.007,-0.0011 0.0275,-0.0035 0.0206,-0.0024 -0.11781,0.01685 -0.13904,0.02318 -0.0832,0.0089 0.0868,-0.01283 0.17188,-0.01812 0.25943,-0.03112 0.0434,-0.0097 0.12897,-0.01781 -0.10514,0.0127 -0.004,5.3e-4 0.008,-7.93e-4 0.0124,-0.0013 0.15076,-0.02106 0.098,-0.0028 0.17052,-0.03139 0.007,-0.0034 0.0457,-0.02842 0.0519,-0.01929 -2.6e-4,0.0013 -0.002,0.0037 -0.001,0.0037 0.005,-3.5e-5 0.0179,-0.0044 0.0133,-0.0038 -0.38769,0.05562 0.003,0.0067 0.0135,0.0054 0.008,-0.0011 0.0151,-0.003 0.0226,-0.0045 0.0611,-0.0154 0.1169,-0.04323 0.17373,-0.06976 0.0406,-0.02133 0.0861,-0.03019 0.1297,-0.044 0.0543,-0.01598 0.10797,-0.03603 0.15328,-0.07089 0.029,-0.02299 0.0561,-0.04963 0.0886,-0.06761 0.0394,-0.02228 0.0774,-0.04699 0.11686,-0.0691 0.0616,-0.03259 0.12401,-0.06379 0.18463,-0.09825 0.0597,-0.0322 0.11634,-0.06968 0.17732,-0.09938 0.0417,-0.01587 0.084,-0.03017 0.12577,-0.0461 0.0927,-0.03386 0.1792,-0.08188 0.26414,-0.131791 0.0618,-0.03993 0.12292,-0.08149 0.192,-0.107982 0.062,-0.02756 0.1257,-0.05259 0.18271,-0.08992 0.0461,-0.02935 0.091,-0.06049 0.13712,-0.08985 0.0433,-0.0276 0.0855,-0.05678 0.12973,-0.08282 0.0348,-0.02318 0.0704,-0.04442 0.10803,-0.06253 -0.0512,0.0091 -0.20534,0.03286 -0.15357,0.02775 0.11369,-0.01125 0.16099,-0.01016 0.25368,-0.06481 0.10261,-0.06384 0.19034,-0.147791 0.27157,-0.236826 0.0462,-0.05673 0.0949,-0.114641 0.15477,-0.157255 0.0865,-0.05008 0.15419,-0.119015 0.20836,-0.203094 0.0306,-0.04682 0.0581,-0.09506 0.0857,-0.143706 0.007,-0.01193 0.0126,-0.02439 0.0197,-0.03614 0.003,-0.0056 0.009,-0.0097 0.0116,-0.01566 7.9e-4,-0.0016 -0.004,0.0011 -0.005,0.0019 0.007,0.0087 0.0463,-0.0029 0.0566,-0.0073 0.11392,-0.04823 0.16328,-0.100878 0.2139,-0.213759 0.0108,-0.03111 0.0243,-0.06142 0.0325,-0.09332 0.0613,-0.238874 0.0309,-0.495536 -0.0294,-0.730687 -0.004,-0.03172 -0.4525,0.02466 -0.44852,0.05639 z" />
      <path
         style="fill:#1a1a1a;stroke:none;stroke-width:0.3;stroke-opacity:1;-inkscape-stroke:none"
         id="path54"
         d="m 101.43649,89.777733 c -0.002,0.04033 -0.007,0.0806 -0.007,0.120994 4e-5,0.04629 0.004,0.0925 0.007,0.138687 0.007,0.11554 0.0136,0.239709 0.0561,0.348821 0.004,-7.94e-4 0.0109,-0.0063 0.0121,-0.0024 0.0126,0.03996 0.0144,0.08267 0.0258,0.122986 0.008,0.02856 0.0762,0.108117 0.0958,0.133231 0.10155,0.113384 0.23921,0.165645 0.38316,0.198673 0.0992,0.01685 0.20298,0.04353 0.30464,0.03682 0.0389,-0.0026 0.0769,-0.01341 0.1153,-0.0204 0.14864,-0.02707 0.0825,-0.0087 0.22027,-0.06297 0.0338,-0.02199 0.0677,-0.04399 0.10152,-0.06598 0.006,-0.0011 -0.008,-0.08331 -0.0143,-0.0823 v 0 c -0.0406,-0.02048 -0.0812,-0.04096 -0.12181,-0.06144 -0.16858,-0.05708 -0.0603,-0.02655 -0.23318,-0.06081 -0.0377,-0.0075 -0.0747,-0.01905 -0.11289,-0.02397 -0.0839,-0.0108 -0.17048,0.0016 -0.25462,-0.0074 -0.0313,-0.0052 -0.0632,-0.0079 -0.0942,-0.01492 -0.0324,-0.0074 -0.0497,-0.02265 -0.0459,-0.0191 0.0146,0.01384 0.032,0.02429 0.0471,0.03765 0.006,0.0056 -0.014,-0.0096 -0.0209,-0.01437 -0.008,-0.0063 -0.0164,-0.01167 -0.0235,-0.01879 -0.022,-0.02217 -0.13495,-0.19423 -0.0758,-0.0013 0.004,0.01283 0.0121,-0.02395 0.0182,-0.03593 0.0492,-0.153327 0.0285,-0.360802 7.9e-4,-0.516502 -0.008,-0.04222 -0.0198,-0.08343 -0.0297,-0.125147 2.6e-4,-0.02506 -0.35394,-0.02907 -0.35422,-0.004 z" />
      <path
         style="fill:#1a1a1a;stroke:none;stroke-width:0.3;stroke-opacity:1;-inkscape-stroke:none"
         id="path55"
         d="m 99.166184,89.446535 c 0.0301,0.201885 0.102963,0.394142 0.170992,0.585669 0.04004,-0.05025 0.02904,-0.06089 0.0967,-0.09665 0.01206,-0.0064 0.02669,-0.0058 0.03972,-0.0099 0.0016,-5.29e-4 0.0054,-0.0026 0.0039,-0.0037 -0.0033,-0.0024 -0.0081,-0.0016 -0.01217,-0.0024 -0.15611,0.141375 -0.200038,0.09286 -0.193866,0.203637 0.0019,0.03374 0.0027,0.06008 -0.0051,0.09337 -0.02093,0.110792 -0.06813,0.211275 -0.121081,0.30969 -0.03043,0.06481 -0.085,0.120078 -0.10695,0.189209 -0.008,0.02506 -0.01019,0.05162 -0.0136,0.07769 -0.0033,0.02532 -0.01228,0.05145 -0.0066,0.07636 0.0082,0.036 0.0313,0.06689 0.04695,0.100338 0.0029,0.03045 0.0057,0.0609 0.0085,0.09135 -0.0011,0.0043 0.0601,0.01847 0.0611,0.01413 v 0 c 0.01132,-0.02482 0.02262,-0.04962 0.03394,-0.07442 0.02611,-0.01164 0.05406,-0.01984 0.07837,-0.0349 0.0141,-0.0087 0.0227,-0.02426 0.03502,-0.03539 0.01376,-0.01244 0.03033,-0.02172 0.04309,-0.03519 0.05197,-0.05484 0.08378,-0.127368 0.128024,-0.187725 0.07565,-0.128394 0.139615,-0.265289 0.160075,-0.41444 0.0048,-0.05443 0.01045,-0.109223 0.003,-0.163762 -0.0013,-0.0089 0.003,-0.03022 -0.0051,-0.02635 -0.07054,0.03391 -0.132733,0.083 -0.199098,0.1245 0.0078,0.0099 0.0056,0.0086 0.02945,0.0099 0.135686,0.0073 0.197078,-0.06243 0.229918,-0.185478 0.0024,-0.02416 0.0065,-0.04823 0.0069,-0.07251 0.0033,-0.209134 -0.07642,-0.414575 -0.171498,-0.596675 -0.0045,-0.02408 -0.345173,0.03954 -0.340675,0.06363 z" />
      <path
         style="fill:#1a1a1a;stroke:none;stroke-width:0.3;stroke-opacity:1;-inkscape-stroke:none"
         id="path56"
         d="m 99.162795,89.579687 c 0.02434,0.23735 0.09778,0.465812 0.138416,0.700503 7.94e-4,0.0978 -0.06885,0.173233 -0.108103,0.258225 -0.01733,0.03752 -0.03212,0.07615 -0.04818,0.114234 -0.06359,0.17127 -0.135461,0.406575 -0.09442,0.590264 0.07577,0.339157 0.05672,-0.01622 0.06062,0.272479 -0.0011,0.0062 0.08606,0.02074 0.08709,0.01458 v 0 c 0.03729,-0.209407 -0.01524,-0.02402 0.111342,-0.222305 0.02421,-0.03792 0.0401,-0.08067 0.05645,-0.122579 0.04941,-0.126659 0.07833,-0.260805 0.115848,-0.391104 0.02476,-0.08181 0.04867,-0.165349 0.08478,-0.243192 0.03577,-0.07711 0.03789,-0.05579 0.06476,-0.142034 0.009,-0.02908 0.01408,-0.05926 0.02111,-0.0889 0.0042,-0.03223 0.01093,-0.06422 0.0126,-0.09668 0.0096,-0.186851 -0.04011,-0.395745 -0.106598,-0.569227 -0.01685,-0.04397 -0.03947,-0.08552 -0.0592,-0.128281 -0.0038,-0.02379 -0.34032,0.03021 -0.336502,0.05401 z" />
      <path
         style="fill:#1a1a1a;stroke:none;stroke-width:0.3;stroke-opacity:1;-inkscape-stroke:none"
         id="path57"
         d="m 99.417959,101.9955 c 0.190733,0.0709 0.391639,0.10095 0.589831,0.14156 0.0428,0.009 0.20705,0.0475 0.2556,0.0588 0.12989,0.0137 0.22706,0.11446 0.35241,0.14022 0.22467,0.0462 -0.2544,-0.13151 0.20042,0.058 0.004,0.006 0.0917,-0.0514 0.0876,-0.0576 v 0 c -0.0202,-0.0452 -0.0329,-0.0946 -0.0607,-0.13553 -0.0302,-0.0443 -0.17578,-0.20007 -0.23492,-0.24112 -0.093,-0.0645 -0.22028,-0.085 -0.32271,-0.1292 -0.28399,-0.0825 -0.57847,-0.14189 -0.875573,-0.13214 -0.02101,5.2e-4 -0.01289,0.29752 0.0081,0.29695 z" />
      <path
         style="fill:#1a1a1a;stroke:none;stroke-width:0.3;stroke-opacity:1;-inkscape-stroke:none"
         id="path58"
         d="m 108.28329,94.279044 c 0.39002,0.02481 0.77256,-0.08647 1.13112,-0.227591 0.33161,0.04592 0.5042,0.318981 0.83368,0.467663 0.13971,0.117174 0.32007,0.476922 0.56465,0.599553 0.33573,0.227264 0.40739,0.668565 0.72771,0.909018 0.2542,0.239323 0.44614,0.56541 0.79385,0.685514 0.3032,0.175409 0.55014,0.467288 0.9233,0.498408 0.3645,0.0741 0.80239,0.108529 1.11058,-0.137508 0.22928,-0.195216 0.52002,-0.341223 0.65483,-0.629662 0.17114,-0.315306 0.35854,-0.631115 0.46446,-0.975586 0.0896,-0.491132 0.012,-1.082793 -0.41625,-1.399164 -0.36709,-0.268123 -0.88801,-0.318556 -1.29162,-0.101962 -0.21175,0.09683 -0.45806,0.356523 -0.57398,0.45641 -0.0851,0.03857 -0.20661,0.298588 -0.0958,0.08904 -0.12375,0.167173 -0.1092,0.316388 -0.12967,0.339679 0.0709,-0.16323 -0.0875,0.25633 -0.0168,0.353321 0.0821,0.212386 -0.041,-0.227689 0.0142,0.07487 -0.0234,0.116403 0.39174,0.310426 0.16023,0.168965 0.23179,0.205523 0.6544,0.140178 0.8615,0.05226 0.26148,-0.02416 0.40368,0.02501 0.67029,-0.08481 0.15365,-0.37912 -0.28771,-0.386981 -0.53823,-0.328019 -0.26928,-0.01003 -0.54413,0.145374 -0.75157,0.07041 0.22604,0.144174 -0.22591,-0.160829 -0.0314,-0.0076 -0.0389,0.0552 0.0554,0.206536 0.004,0.0013 -0.0475,-0.168476 0.036,0.09178 -0.003,-0.142313 -0.066,0.132245 0.0469,-0.100375 0.0525,-0.17371 0.038,-0.160618 -0.10252,0.17707 0.0353,-0.07039 0.0886,-0.01562 0.36714,-0.336462 0.54983,-0.39257 0.21731,-0.109894 0.48057,-0.095 0.7246,0.02981 0.22585,0.127482 -0.11991,-0.112055 0.11044,0.07606 0.21756,0.189511 0.2364,0.524713 0.21823,0.799899 -0.0766,0.305893 -0.25042,0.585107 -0.38734,0.868582 -0.1798,0.259354 -0.43464,0.517912 -0.72093,0.633255 -0.34609,0.06846 -0.75012,0.07845 -1.03656,-0.158061 -0.2258,-0.183738 -0.59226,-0.274697 -0.66205,-0.373067 -0.22294,-0.283079 -0.51811,-0.50485 -0.71829,-0.803169 -0.13751,-0.303591 -0.38672,-0.537422 -0.66129,-0.717725 -0.19676,-0.330037 -0.49874,-0.562719 -0.84413,-0.722959 -0.26129,-0.2895 -0.66254,-0.275282 -1.00854,-0.185569 -0.26518,0.0481 -0.53739,0.06754 -0.79426,0.153812 -1.9e-4,0.102892 0.0329,0.216389 0.0762,0.303652 z" />
      <path
         style="fill:#1a1a1a;stroke:none;stroke-width:0.3;stroke-opacity:1;-inkscape-stroke:none"
         id="path59"
         d="m 114.59585,95.467944 c 0.21543,0.021 0.71495,-0.04498 0.63905,-0.291037 -0.18047,-0.158442 -0.70034,-0.168161 -0.7158,0.07903 0.0212,0.07158 0.0327,0.149927 0.0768,0.212012 z" />
      <path
         style="fill:#1a1a1a;stroke:none;stroke-width:0.3;stroke-opacity:1;-inkscape-stroke:none"
         id="path60"
         d="m 114.25865,94.04711 c 0.2323,-0.01285 0.58202,-0.121237 0.72348,-0.172794 -0.3115,-0.288414 0.0108,0.20329 0.21397,0.148229 0.20271,-0.0157 0.46367,0.256456 0.45857,0.27491 0.11607,0.144947 0.32814,0.337615 0.42268,0.417906 -0.22075,-0.303265 0.0249,0.38973 -0.0566,0.530874 -0.14891,0.503293 -0.39156,0.985734 -0.73143,1.387212 -0.14267,0.242619 -0.3541,0.428427 -0.55865,0.616598 0.08,-0.106529 -0.36534,0.105289 -0.46323,0.157675 -0.3546,-0.01116 -0.71125,0.126214 -1.06907,0.05872 -0.34277,-0.0512 -0.68447,-0.09656 -1.03003,-0.123861 -0.24559,-0.03208 -0.54498,-0.118916 -0.72929,-0.161949 -0.0313,-0.0024 -0.19808,-0.145289 -0.0515,-0.02397 -0.0494,-0.04153 -0.38836,-0.279516 -0.17656,-0.127804 -0.16675,-0.230319 -0.38591,-0.40361 -0.62577,-0.549531 0.16826,0.174346 -0.17455,-0.270126 -0.26669,-0.315557 -0.16219,-0.276257 -0.32188,-0.572805 -0.56178,-0.789442 -0.24074,-0.212415 -0.70347,-0.223228 -0.76281,0.10198 0.16181,0.07424 0.37088,0.370466 0.54318,0.325923 -0.27906,-0.215623 0.14279,0.210183 0.18002,0.320068 0.134,0.305335 0.39631,0.499645 0.57882,0.764239 0.11794,0.09624 0.54645,0.340951 0.23892,0.123137 0.12517,0.156467 0.43879,0.503992 0.50785,0.48238 -0.14208,-0.108811 0.2402,0.228871 0.33928,0.195553 0.002,-0.0065 0.3194,0.168355 0.51849,0.182001 0.34566,0.08086 0.70779,-0.02528 1.04453,0.104442 0.41416,0.09129 0.8462,0.04847 1.24969,-0.0705 0.33427,-0.0016 0.61876,-0.20636 0.90132,-0.339368 0.24107,-0.202567 0.48998,-0.41038 0.61844,-0.706818 0.23575,-0.21861 0.35744,-0.517335 0.50525,-0.796145 0.23073,-0.360844 0.29639,-0.809038 0.25438,-1.228553 -0.014,-0.200733 -0.16294,-0.544978 -0.27636,-0.544197 -0.0525,-0.07807 -0.34483,-0.403188 -0.55428,-0.496848 -0.14359,-0.140277 -0.59973,-0.189134 -0.48418,-0.08193 -0.20346,-0.299787 -0.60944,-0.114841 -0.89038,-0.04592 -0.24914,0.01979 -0.0694,0.259984 -0.0103,0.383343 z" />
    </g>
    <g
       id="g104"
       inkscape:label="testing">
      <text
         xml:space="preserve"
         style="font-style:normal;font-variant:normal;font-weight:normal;font-stretch:normal;font-size:5.23648px;font-family:'3270 Nerd Font Mono';-inkscape-font-specification:'3270 Nerd Font Mono, Normal';font-variant-ligatures:normal;font-variant-caps:normal;font-variant-numeric:normal;font-variant-east-asian:normal;text-align:center;text-anchor:middle;fill:#1a1a1a;stroke:none;stroke-width:0.0780811;stroke-opacity:1;-inkscape-stroke:none"
         x="27.519907"
         y="144.13181"
         id="text103"
         transform="rotate(-4.7175807)"><tspan
           sodipodi:role="line"
           id="tspan103"
           style="font-style:normal;font-variant:normal;font-weight:normal;font-stretch:normal;font-size:5.23648px;font-family:'3270 Nerd Font Mono';-inkscape-font-specification:'3270 Nerd Font Mono, Normal';font-variant-ligatures:normal;font-variant-caps:normal;font-variant-numeric:normal;font-variant-east-asian:normal;stroke-width:0.0780811"
           x="27.519907"
           y="144.13181">&gt; task test</tspan></text>
      <text
         xml:space="preserve"
         style="font-style:normal;font-variant:normal;font-weight:normal;font-stretch:normal;font-size:5.23648px;font-family:'3270 Nerd Font Mono';-inkscape-font-specification:'3270 Nerd Font Mono, Normal';font-variant-ligatures:normal;font-variant-caps:normal;font-variant-numeric:normal;font-variant-east-asian:normal;text-align:center;text-anchor:middle;fill:#1a1a1a;stroke:none;stroke-width:0.0780811;stroke-opacity:1;-inkscape-stroke:none"
         x="27.211308"
         y="135.0076"
         id="text102"
         transform="rotate(-4.7175807)"><tspan
           sodipodi:role="line"
           id="tspan102"
           style="font-style:normal;font-variant:normal;font-weight:normal;font-stretch:normal;font-size:5.23648px;font-family:'3270 Nerd Font Mono';-inkscape-font-specification:'3270 Nerd Font Mono, Normal';font-variant-ligatures:normal;font-variant-caps:normal;font-variant-numeric:normal;font-variant-east-asian:normal;stroke-width:0.0780811"
           x="27.211308"
           y="135.0076">&gt; task test</tspan></text>
      <ellipse
         style="fill:#ffffff;stroke:#ffffff;stroke-width:0.551905;stroke-opacity:1;-inkscape-stroke:none"
         id="ellipse102"
         cx="49.807995"
         cy="139.47166"
         rx="11.523888"
         ry="7.4218526" />
      <text
         xml:space="preserve"
         style="font-style:normal;font-variant:normal;font-weight:normal;font-stretch:normal;font-size:2.82222px;font-family:'3270 Nerd Font Mono';-inkscape-font-specification:'3270 Nerd Font Mono, Normal';font-variant-ligatures:normal;font-variant-caps:normal;font-variant-numeric:normal;font-variant-east-asian:normal;text-align:center;text-anchor:middle;white-space:pre;inline-size:33.7256;display:inline;fill:#1a1a1a;stroke:none;stroke-width:0.0420821;stroke-opacity:1;-inkscape-stroke:none"
         x="130.72301"
         y="103.06185"
         id="text101"
         transform="matrix(1.8491617,-0.15260002,0.15260002,1.8491617,-198.34084,-15.059584)"><tspan
           x="130.72301"
           y="103.06185"
           id="tspan7"><tspan
             style="text-align:start;text-anchor:start"
             id="tspan6">ERRORRRRRRRRRRRRRRRRRRRRRR</tspan></tspan></text>
      <path
         style="fill:#1a1a1a;stroke:none;stroke-width:0.556634;stroke-opacity:1;-inkscape-stroke:none"
         id="path61"
         d="m 48.694803,135.35517 c -0.928651,0.52263 -2.293259,0.73654 -2.635663,1.90154 0.443526,0.49023 -0.340716,0.49052 -0.216475,1.1251 -0.188643,1.31208 0.276424,2.76811 1.404444,3.53205 1.026229,0.24902 2.080383,0.52625 3.143147,0.47196 2.094503,-0.13323 3.468443,-2.85981 2.243366,-4.59176 -0.559139,-0.59648 -1.1922,-1.13265 -1.77186,-1.71458 -0.478372,-0.41302 -1.924674,-0.94698 -2.064612,-0.11225 0.836213,0.43447 1.840047,0.59801 2.443439,1.44172 0.794521,0.57897 1.473336,1.38025 1.112303,2.42702 -0.200982,1.12393 -1.254078,2.13291 -2.448021,1.92942 -1.082283,-0.11634 -2.410858,-0.16272 -3.043343,-1.20643 -0.548971,-0.8577 -0.354353,-1.91983 -0.0037,-2.81026 0.187215,-0.4528 -0.294571,-0.57061 0.269281,-0.4682 0.429685,-0.71921 1.612199,-0.52385 1.919702,-1.34198 0.02245,-0.24879 -0.177752,-0.43924 -0.351199,-0.58327 z" />
      <path
         style="fill:#1a1a1a;stroke:none;stroke-width:0.556634;stroke-opacity:1;-inkscape-stroke:none"
         id="path62"
         d="m 58.690508,135.21596 c -1.750485,-0.46858 -3.074681,0.93746 -4.11761,2.0968 -1.206597,0.96741 -1.734008,2.97482 -0.431707,4.091 1.064081,0.95046 2.654608,0.9389 3.974518,0.65485 1.223241,-0.35866 2.532055,-1.17075 2.867705,-2.47202 -0.01484,-1.29849 -1.055082,-3.18676 -2.415088,-3.18007 -0.247461,1.13309 2.259082,1.93106 1.467214,3.45021 -1.083247,1.67914 -3.502992,2.02544 -5.255054,1.27868 -1.513266,-1.07146 -0.379384,-3.05891 0.874565,-3.78064 0.568379,-1.14375 1.679087,-1.28126 2.77022,-1.31158 0.350105,-0.11652 0.659519,-0.5366 0.265237,-0.82723 z" />
      <ellipse
         style="fill:#ffffff;stroke:#ffffff;stroke-width:0.418554;stroke-opacity:1;-inkscape-stroke:none"
         id="path102"
         cx="55.787125"
         cy="149.58662"
         rx="7.3284607"
         ry="6.7123294" />
      <path
         style="fill:#1a1a1a;stroke:none;stroke-width:0.556634;stroke-opacity:1;-inkscape-stroke:none"
         id="path63"
         d="m 51.135904,142.74032 c -3.985316,0.53975 -6.518187,5.55053 -4.733618,9.11518 2.16399,2.83865 6.384614,3.04099 9.411944,1.59203 2.232456,-0.8094 3.486386,-3.5828 2.353413,-5.73615 -0.825433,-2.1169 -2.992318,-3.03986 -4.802455,-4.03345 -1.01237,-0.37975 -3.14131,-0.95941 -3.547412,0.29682 1.771025,0.68761 4.099407,0.83048 5.742016,2.14415 1.655412,1.03595 2.936135,3.517 1.404277,5.19132 -2.036724,2.45348 -5.865626,2.60965 -8.598366,1.33268 -2.198168,-1.19523 -2.04578,-4.24722 -0.918521,-6.14113 0.744034,-1.51054 2.130276,-2.3825 3.568025,-3.09934 0.179051,-0.1668 0.225975,-0.44217 0.12079,-0.66211 z" />
      <path
         style="fill:#1a1a1a;stroke:none;stroke-width:0.556634;stroke-opacity:1;-inkscape-stroke:none"
         id="path64"
         d="m 50.322921,150.84213 c 0.900152,0.17441 3.406528,0.0488 3.225678,-0.63852 -0.865622,-0.0382 -3.968302,-1.06894 -3.225678,0.63852 z" />
      <circle
         style="fill:#1a1a1a;stroke:none;stroke-width:0.353428;stroke-opacity:1;-inkscape-stroke:none"
         id="circle64"
         cx="49.34354"
         cy="140.18643"
         r="1.0315355" />
      <circle
         style="fill:#1a1a1a;stroke:none;stroke-width:0.353428;stroke-opacity:1;-inkscape-stroke:none"
         id="circle65"
         cx="56.547043"
         cy="139.6974"
         r="1.0315355" />
      <path
         style="fill:#1a1a1a;stroke:none;stroke-width:0.556634;stroke-opacity:1;-inkscape-stroke:none"
         id="path65"
         d="m 62.272041,136.12869 c 0.809736,-0.5651 2.753317,-1.43103 2.962185,-1.69347 0.660836,1.31451 2.73185,0.22603 3.312401,1.64931 0.912936,1.39925 2.288861,2.82375 1.91343,4.65181 -0.623003,1.45905 -1.831828,2.53634 -3.285645,3.11053 -1.012573,0.88805 -2.68615,1.35171 -3.73266,0.25332 -0.646178,-0.8448 -0.698706,-0.0764 -0.510916,-0.39769 -0.221336,-1.34223 -1.002368,0.2833 -0.784557,0.19441 -0.540102,-0.67638 0.569251,1.33394 1.212739,1.30852 1.534195,1.03988 3.470522,0.19525 4.747961,-0.86371 1.626522,-0.67735 3.107336,-2.35711 3.219461,-4.16199 0.06438,-1.91934 -1.347909,-3.29827 -2.301312,-4.79936 -0.884492,-1.41218 -2.914166,-0.45995 -3.533421,-1.5824 -1.403962,-0.0939 -2.584398,0.95388 -3.6808,1.70794 0.09537,0.23469 0.267667,0.46371 0.461134,0.62278 z" />
      <path
         style="fill:#1a1a1a;stroke:none;stroke-width:0.556634;stroke-opacity:1;-inkscape-stroke:none"
         id="path66"
         d="m 44.956447,135.42909 c -1.602828,-0.30073 -3.661354,-0.83378 -4.934451,0.52116 -1.815426,1.25144 -2.831376,4.26473 -0.991588,5.92576 0.621723,0.98176 3.340065,0.99916 3.261375,0.41748 -1.444243,-0.0167 -3.332216,-0.61794 -3.445603,-2.32341 -0.106688,-1.68039 1.053727,-3.54847 2.729883,-3.90167 1.053189,-0.45515 3.649072,1.07233 3.379587,-0.63932 z" />
      <path
         style="fill:#1a1a1a;stroke:none;stroke-width:0.556634;stroke-opacity:1;-inkscape-stroke:none"
         id="path67"
         d="m 62.145129,145.43218 c -0.203432,1.91484 -0.160126,4.06629 -1.646302,5.52506 -0.768044,1.0045 -3.285886,1.75292 -2.58963,2.406 0.508411,1.61023 1.275454,3.1658 2.1423,4.61297 0.414006,1.02976 1.627432,0.70023 0.92778,-0.18239 -0.972756,-1.55922 -1.665413,-3.30512 -2.532872,-4.90233 -0.759565,-0.51121 -0.09778,0.861 0.40549,0.049 2.570314,-0.7565 4.176668,-3.432 4.122656,-6.04068 -0.06902,-0.70261 0.358769,-1.75318 -0.829422,-1.46761 z" />
      <path
         style="fill:#1a1a1a;stroke:none;stroke-width:0.556634;stroke-opacity:1;-inkscape-stroke:none"
         id="path68"
         d="m 56.818584,154.52731 c 0.526223,1.80268 1.778632,3.26136 2.420041,5.00232 0.09964,0.62842 1.141249,2.2656 0.720619,0.63058 0.07515,-1.82265 -1.254357,-3.23539 -1.899477,-4.84497 -0.348917,-0.55361 -0.393485,-1.36759 -1.241183,-0.78793 z" />
      <path
         style="fill:#1a1a1a;stroke:none;stroke-width:0.556634;stroke-opacity:1;-inkscape-stroke:none"
         id="path69"
         d="m 55.801056,135.07663 c 1.462241,-0.73563 3.113887,-1.36843 4.337053,-2.41169 -0.651021,-0.85445 -1.13455,0.24123 -0.260059,0.16495 -0.0334,-1.65896 -2.246057,0.39519 -3.104201,0.60011 -0.612335,0.52182 -2.303891,0.70288 -0.972793,1.64665 z" />
      <path
         style="fill:#1a1a1a;stroke:none;stroke-width:0.556634;stroke-opacity:1;-inkscape-stroke:none"
         id="path70"
         d="m 47.68377,133.20016 c 1.313694,0.54033 3.136319,0.96456 4.269941,0.94413 0.980308,0.3036 -0.631019,-1.56891 -0.07088,-0.0996 0.845008,0.41916 0.358343,-1.24662 -0.386397,-0.9362 -1.228881,-0.16514 -2.728973,-0.83816 -3.777914,-0.73749 -0.02227,0.27197 -0.107244,0.5579 -0.03488,0.8292 z" />
      <path
         style="fill:#1a1a1a;stroke:none;stroke-width:0.556634;stroke-opacity:1;-inkscape-stroke:none"
         id="path71"
         d="m 51.117406,131.27309 c 1.943414,0.0462 4.046026,-0.28047 5.883828,-0.0445 1.403071,-0.52136 -1.187505,-1.32395 -2.121296,-1.04532 -1.156148,0.21989 -3.495552,-0.23813 -3.898574,0.73155 l 0.07644,0.25086 0.05956,0.10743 z" />
      <path
         style="fill:#1a1a1a;stroke:none;stroke-width:0.686198;stroke-opacity:1;-inkscape-stroke:none"
         id="path72"
         d="m 72.886036,123.53812 c 0.606249,-0.90907 0.330604,-2.70544 1.704136,-2.8836 1.105828,10e-4 2.187462,-0.43446 3.310842,-0.2532 2.032291,0.0375 3.640203,2.20349 3.232097,4.16094 -0.547208,0.72243 -1.204705,1.6285 -2.044276,1.96846 -1.057438,0.1733 -1.911427,1.16301 -3.05646,0.87475 -0.736279,-0.15493 -2.286135,-0.0807 -1.71833,1.06736 0.539322,1.33715 0.508429,2.86183 1.206727,4.14895 -0.13786,0.6456 1.280648,-0.0299 0.325928,0.30502 -0.343926,0.49837 1.118594,1.15247 1.180139,0.19807 -0.541513,-1.17398 -0.792777,-2.46717 -1.163885,-3.69496 -0.123388,-0.53639 -0.559993,-2.32148 -1.175371,-1.21663 -0.0056,0.95407 1.270648,0.37901 1.921743,0.56424 0.799197,-0.0189 1.561174,-0.31522 2.222715,-0.74519 1.010588,-0.22081 1.86632,-0.74875 2.442493,-1.61262 1.019772,-0.69181 1.301744,-1.88106 1.088813,-3.03535 -0.03934,-1.30445 -0.932733,-2.4041 -1.854482,-3.24725 -1.364793,-1.13339 -3.296259,-1.15073 -4.961838,-0.86284 -0.867088,0.25588 -1.956496,-0.15271 -2.635515,0.63994 -0.636122,0.89993 -1.232166,2.25036 -1.122156,3.22781 0.332217,0.2072 0.708409,0.3443 1.09668,0.3961 z" />
      <path
         style="fill:#1a1a1a;stroke:none;stroke-width:0.556634;stroke-opacity:1;-inkscape-stroke:none"
         id="path73"
         d="m 78.593764,135.08802 c -0.852077,0.20978 -1.785126,0.45448 -2.376717,1.14801 -0.356505,0.6038 0.326633,1.16229 0.917371,1.05319 0.586451,0.006 1.204797,0.2174 1.771266,-0.004 0.752013,-0.28227 1.178932,-1.31574 0.665307,-1.98596 -0.365467,-0.24418 -0.796951,-0.52216 -1.261314,-0.50649 -0.616528,0.19291 -1.281057,0.62692 -1.389582,1.31529 0.105946,0.65026 0.784038,1.01356 1.368949,1.14981 0.64102,0.0295 1.002647,-0.6611 1.084583,-1.20894 0.140272,-0.82313 -0.668554,-1.58099 -1.477455,-1.45484 -0.82638,0.0514 -1.668103,0.78747 -1.532897,1.66567 0.120048,0.51311 0.57235,0.94135 1.071428,1.08531 0.616361,0.12803 1.031054,-0.52702 1.091894,-1.06096 0.06939,-0.41319 0.03006,-0.9715 -0.438201,-1.12858 -0.520212,-0.2541 -0.88195,0.44982 -0.427254,0.76498 0.104647,-0.10112 -0.157527,-0.0757 -0.05399,0.15401 0.13118,0.67282 -0.775244,0.006 -0.282195,-0.28348 0.291509,-0.41284 1.440476,-0.30023 0.980103,0.35972 -0.08034,0.32047 0.05362,0.19217 -0.233675,0.0592 -0.186028,-0.21379 -0.405341,0.044 -0.145839,-0.16328 0.25698,-0.41859 0.648609,-0.22533 0.957356,-0.006 0.09518,0.0891 -0.227942,-0.39896 -0.08387,-0.0481 -0.06605,0.57736 -0.765483,0.48817 -1.174387,0.40483 -0.271414,-0.0258 -0.931416,-0.22704 -0.651763,0.2359 0.0167,0.39896 0.58185,-0.22967 0.864064,-0.21718 0.357637,-0.13768 0.72316,-0.25435 1.077106,-0.4016 -0.03061,-0.32804 -0.145839,-0.64723 -0.320195,-0.92544 z" />
      <path
         style="fill:#1a1a1a;stroke:none;stroke-width:0.556634;stroke-opacity:1;-inkscape-stroke:none"
         id="path74"
         d="m 59.667828,159.0734 c -1.0492,0.7675 -2.068565,1.59171 -2.954374,2.54619 -0.279876,0.2955 -0.440186,0.66831 -0.646067,1.01183 -0.04676,0.0781 -0.47004,0.72197 -0.490042,0.7525 -0.52281,0.82712 -1.163959,1.6023 -1.570618,2.49854 0.27854,0.0803 0.545761,0.23644 0.835582,0.24082 0.04527,5e-4 0.299266,-0.52845 0.325873,-0.60168 0.0167,-0.0438 0.07051,-0.10168 0.03748,-0.13471 -0.209443,-0.20852 -0.472267,-0.35547 -0.70841,-0.53318 -0.149364,0.0382 -0.29921,0.1271 -0.456552,0.0907 -0.153074,-0.0501 -0.06865,-0.0575 -0.305518,-0.0328 0.0019,-0.007 -0.02245,-0.004 -0.0167,-0.006 0.111698,-0.0761 0.26891,0.0828 0.328303,0.1258 -0.193245,-0.24536 -0.434509,-0.29357 -0.712065,-0.35101 -0.182576,-0.0393 -0.361423,-0.0885 -0.548786,-0.0924 -0.295684,0.0247 -0.581571,0.1167 -0.861521,0.21005 -0.53051,0.18798 -1.0035,0.47889 -1.435801,0.83466 -0.42269,0.40255 -0.730508,0.75455 -0.783815,1.35204 0.03173,0.39844 0.283568,0.69641 0.560289,0.96187 0.0423,0.039 0.302327,0.28236 0.28162,0.22304 -0.04063,-0.11652 -0.319935,-0.3741 -0.251191,-0.27169 0.396565,0.59081 0.439556,0.53672 1.045972,0.34502 0.318488,-0.16718 0.700803,-0.33788 0.922528,-0.63805 -0.978841,-0.45186 -0.568917,0.1973 -0.05065,0.36698 0.191092,0.0625 0.624209,-0.11633 0.805004,-0.18313 0.276239,-0.0957 0.525315,-0.25687 0.795635,-0.36543 0.147322,-0.0592 0.05307,-0.001 0.114481,-0.0408 -0.251116,-0.072 0.180906,0.0707 -0.254827,-0.26612 -0.04583,-0.0354 0.03748,0.11002 0.06587,0.16068 0.08776,0.15678 0.208089,0.21128 0.36736,0.27314 0.0019,9.8e-4 0.01484,-0.0343 0.01113,-0.0351 v 0 c -0.05604,-0.0675 -0.125243,-0.15567 -0.124872,-0.2506 1.3e-4,-0.025 0.0282,-0.0471 0.02282,-0.0716 -0.110399,-0.49091 -9.83e-4,-0.42 -0.279783,-0.49436 -0.378381,0.0213 -0.722511,0.23709 -1.076011,0.35376 -0.234621,0.0926 -0.141014,0.059 -0.346189,0.12914 -0.01299,0.004 -0.04898,0.002 -0.04064,0.013 0.05362,0.072 0.141014,0.11523 0.191557,0.18948 0.01113,0.0167 -0.01893,0.0336 -0.02857,0.0505 -0.215974,-0.12469 -0.43193,-0.24945 -0.647904,-0.37417 -0.270264,0.12227 -0.508003,0.31608 -0.796618,0.40258 -0.0501,0.0191 -0.113924,0.0186 -0.150105,0.0573 -0.0167,0.0186 0.04769,0.0195 0.0616,0.0395 0.0757,0.10929 0.269764,0.45817 0.203228,0.34309 -0.09018,-0.15586 -0.211614,-0.29665 -0.27405,-0.46557 -0.01484,-0.038 0.246236,0.19598 0.09556,0.0753 -0.150292,-0.14027 -0.28355,-0.30121 -0.445698,-0.42677 -0.06772,-0.23848 0.455364,-0.64254 0.58981,-0.79259 0.367212,-0.29821 0.770642,-0.53691 1.219604,-0.69234 0.167918,-0.0616 0.374189,-0.16532 0.5558,-0.15697 0.15159,0.0586 0.316892,0.0777 0.475013,0.11058 0.02431,0.004 0.08943,0.0111 0.119491,0.0284 0.0037,0.002 0.0093,0.013 0.0056,0.0111 -0.36094,-0.24399 -0.221763,-0.15511 -0.140828,-0.10557 0.237274,0.19057 0.36337,0.30663 0.666235,0.24384 -0.136375,0.0111 -0.169402,-0.006 -0.115965,9.9e-4 0.06828,0.007 0.134334,0.0653 0.206214,0.0603 0.258223,0.033 0.510452,-0.0206 0.756373,-0.10001 -0.139344,-0.20352 -0.269262,-0.41375 -0.417828,-0.61061 -0.0074,-0.0111 -0.01113,0.0236 -0.0167,0.0351 -0.02171,0.0414 -0.04379,0.0824 -0.06642,0.1232 -0.01484,0.0258 -0.22937,0.40028 -0.224899,0.40901 0.133778,0.26103 0.383633,0.44377 0.575449,0.66565 0.64449,-0.7469 1.119521,-1.63187 1.652721,-2.45634 0.08665,-0.15103 0.176453,-0.30013 0.259707,-0.45301 0.224379,-0.41216 0.375524,-0.87783 0.741307,-1.19218 0.955073,-0.85205 1.980561,-1.62268 2.903739,-2.51101 0.04453,-0.0395 -0.514646,-0.66846 -0.559121,-0.62892 z" />
      <path
         style="fill:#1a1a1a;stroke:none;stroke-width:0.556634;stroke-opacity:1;-inkscape-stroke:none"
         id="path75"
         d="m 59.561269,160.56427 c -2.795955,1.69647 -2.126473,5.41191 -3.16634,7.93862 0.457275,1.48766 0.500192,-0.72871 -0.161424,0.48084 2.543578,0.18295 0.942197,-4.23333 2.213067,-5.83432 0.127655,-0.88477 2.304856,-1.77864 1.114716,-2.58514 z" />
      <path
         style="fill:#1a1a1a;stroke:none;stroke-width:0.556634;stroke-opacity:1;-inkscape-stroke:none"
         id="path76"
         d="m 57.315176,166.44084 c -1.762713,-1.92675 -4.129225,-0.60887 -5.291403,1.13269 -1.559355,1.85243 -1.896954,4.77118 -1.148763,6.98807 1.183813,1.03704 1.241498,0.18406 0.515183,-0.75558 0.234826,-2.08515 -0.243249,-4.55878 1.649159,-5.95834 1.101134,-1.57094 2.360241,-1.67992 3.90184,-0.71448 l 0.236848,-0.20746 0.137117,-0.4849 z" />
      <path
         style="fill:#1a1a1a;stroke:none;stroke-width:0.556634;stroke-opacity:1;-inkscape-stroke:none"
         id="path77"
         d="m 61.627644,158.64581 c 0.416993,0.82259 0.929839,1.59978 1.556888,2.27828 0.387491,0.4193 0.608234,0.57558 1.064507,0.9574 0.620777,0.40304 1.324641,0.70471 1.805722,1.2876 0.494198,0.57506 0.885902,1.23749 1.441775,1.76008 0.180164,0.1694 0.374318,0.32314 0.561496,0.48472 0.723606,0.56055 1.566647,0.92137 2.355435,1.3731 0.128954,0.0655 0.09333,0.0148 0.119305,0.14491 -9.83e-4,0.002 0.03692,0.0148 0.03767,0.0111 v 0 c 0.112254,-0.23862 0.09722,-0.10484 -0.02839,-0.40288 -0.597751,-0.74485 -1.410789,-1.2006 -2.12497,-1.81856 -0.212597,-0.20306 -0.289524,-0.26748 -0.497965,-0.51841 -0.390386,-0.46995 -0.674343,-1.01873 -1.077773,-1.4792 -0.357285,-0.36842 -0.437626,-0.48227 -0.808178,-0.77031 -0.437848,-0.34036 -0.940804,-0.58541 -1.367613,-0.94101 -0.91262,-0.70984 -1.513025,-1.74635 -2.203363,-2.65375 -0.02022,-0.059 -0.854804,0.22718 -0.83458,0.28618 z" />
      <path
         style="fill:#1a1a1a;stroke:none;stroke-width:0.556634;stroke-opacity:1;-inkscape-stroke:none"
         id="path78"
         d="m 63.052331,160.70313 c 2.39503,0.76622 4.292059,4.79551 6.696125,3.57084 1.920667,-0.94336 0.601017,2.89892 1.726216,0.73458 0.441578,-2.02482 -2.196962,-1.44957 -2.842546,-0.8942 -1.639474,-1.41103 -3.169476,-3.29542 -5.336694,-3.80499 l -0.166619,0.12395 -0.07626,0.26982 z" />
      <path
         style="fill:#1a1a1a;stroke:none;stroke-width:0.556634;stroke-opacity:1;-inkscape-stroke:none"
         id="path79"
         d="m 71.558204,166.32322 c 0.744517,-0.86664 1.346146,-3.10511 1.995849,-1.00359 2.020341,1.25135 3.016847,4.03098 0.863878,5.71413 -1.585127,1.00667 -2.653123,3.3322 -0.138416,1.53861 1.611178,-1.39975 3.357748,-3.93795 1.727792,-5.96877 -1.400343,-1.66423 -3.820886,-4.8152 -4.861996,-1.14505 -0.268539,0.35159 -0.0924,0.89935 0.412893,0.86467 z" />
      <path
         style="fill:#1a1a1a;stroke:none;stroke-width:0.556634;stroke-opacity:1;-inkscape-stroke:none"
         id="path80"
         d="m 62.989895,174.3664 c -1.501298,-0.57005 -3.807285,-0.36125 -4.586277,0.17033 -2.436128,-0.2302 -4.88736,0.49335 -7.291649,1.05032 -1.864521,0.7067 -4.549836,0.57845 -5.795954,-0.11597 1.886006,-1.57704 4.955715,-0.24176 7.344121,-0.55094 2.347587,0.0648 4.689607,-0.38942 7.000492,-0.80419 1.253652,0.2691 3.655121,-2.34851 1.180807,-1.37535 -2.198501,1.06113 -4.741596,1.02065 -7.119092,1.32342 -2.5166,0.14714 -5.043756,-0.34337 -7.540465,-0.0752 -2.82221,0.13174 -1.45289,4.1538 0.860148,2.43971 1.678754,1.55667 4.095845,-0.10167 6.018367,-0.32518 2.139294,-0.69609 4.363419,-0.58052 6.502509,-1.02977 0.867737,-0.19685 3.986708,1.12193 3.426993,-0.70717 z" />
      <path
         style="fill:#1a1a1a;stroke:none;stroke-width:0.556634;stroke-opacity:1;-inkscape-stroke:none"
         id="path81"
         d="m 63.591617,175.64679 c 1.241331,0.23349 2.867483,-2.64919 0.9057,-2.10027 0.895272,1.40376 0.581181,-0.3061 -0.689466,0.8656 -0.370793,0.24375 -0.818086,0.94001 -0.216234,1.23467 z" />
      <path
         style="fill:#1a1a1a;stroke:none;stroke-width:0.556634;stroke-opacity:1;-inkscape-stroke:none"
         id="path82"
         d="m 65.803366,174.37125 c 2.723649,-0.12098 5.927914,1.41424 8.349663,-0.0906 -2.070735,-0.14918 -4.898697,-0.34491 -7.263799,-0.74416 -0.520416,0.0417 -1.633536,-0.072 -1.085864,0.83474 z" />
      <path
         style="fill:#1a1a1a;stroke:none;stroke-width:0.556634;stroke-opacity:1;-inkscape-stroke:none"
         id="path83"
         d="m 72.433122,174.96881 c 1.467436,-0.39593 2.996139,-3.37367 0.564204,-1.70946 -0.549379,0.33333 -1.175611,1.10934 -0.564204,1.70946 z" />
      <path
         style="fill:#1a1a1a;stroke:none;stroke-width:0.556634;stroke-opacity:1;-inkscape-stroke:none"
         id="path84"
         d="m 20.007153,127.91559 c -0.05622,1.35856 0.06605,2.71854 0.273288,4.06022 0.160868,0.95236 0.394283,1.88934 0.622262,2.82716 0.385877,1.35932 0.65616,2.74695 0.884213,4.14036 0.19267,1.1432 0.385266,2.29049 0.453379,3.44965 0.03841,0.65376 0.04583,1.90771 0.05362,2.53812 -0.02579,2.77471 -0.205806,5.54979 -0.095,8.3248 0.0167,0.44052 0.05399,0.88009 0.08108,1.32015 0.125799,1.69414 0.422727,3.39452 1.052132,4.97997 0.09723,0.24492 0.214489,0.48143 0.321734,0.72214 0.118007,0.19361 0.225938,0.39376 0.354094,0.58083 0.120233,0.17534 0.374615,0.5175 0.59853,0.62311 0.208404,0.0983 0.580867,0.23546 0.6613,-0.1514 0.02171,-0.10484 -0.09092,-0.19394 -0.136375,-0.2909 -0.04397,-0.0803 -0.08795,-0.1605 -0.131737,-0.24088 -0.0015,-0.006 -0.0757,0.013 -0.0744,0.0186 v 0 c 0.01967,0.074 0.03952,0.14806 0.05919,0.22208 -0.03303,0.0236 -0.137489,0.0573 -0.09908,0.0709 0.04694,0.0167 0.08813,-0.056 0.138045,-0.0571 0.05195,-9.9e-4 0.137118,0.10131 0.147323,0.0505 0.01299,-0.0666 -0.08851,-0.10354 -0.125243,-0.16069 -0.228313,-0.35557 -0.260839,-0.47659 -0.44963,-0.8953 -0.237089,-0.59711 -0.344334,-0.83377 -0.536466,-1.46547 -0.387399,-1.27384 -0.530213,-2.60192 -0.608531,-3.92658 -0.0167,-3.20951 0.127098,-6.41914 0.03414,-9.62821 -0.01948,-0.45828 -0.02969,-0.91706 -0.05845,-1.37483 -0.100565,-1.59554 -0.348138,-3.17371 -0.624637,-4.74665 -0.265125,-1.41943 -0.522141,-2.84275 -0.977227,-4.21717 -0.291843,-0.8892 -0.571719,-1.78694 -0.691785,-2.71851 -0.173484,-1.33226 -0.265663,-2.67188 -0.440669,-4.00402 0.0037,-0.0484 -0.68093,-0.0985 -0.684474,-0.0501 z" />
      <path
         style="fill:#1a1a1a;stroke:none;stroke-width:0.556634;stroke-opacity:1;-inkscape-stroke:none"
         id="path85"
         d="m 21.55595,126.06936 c 3.988934,2.43902 8.771147,-0.0724 13.086973,0.0223 10.409099,-1.54255 20.845602,-3.10131 31.361499,-3.52229 2.897987,0.84671 5.040101,-0.39529 0.799494,-0.58723 -11.939898,0.0317 -23.730265,2.19145 -35.524771,3.71642 -3.323329,0.32385 -7.159022,1.08811 -9.723195,0.37079 z" />
      <path
         style="fill:#1a1a1a;stroke:none;stroke-width:0.556634;stroke-opacity:1;-inkscape-stroke:none"
         id="path86"
         d="m 25.239088,161.89974 c 5.965969,0.53925 11.872434,-0.268 17.713996,-1.36147 2.880934,-0.51876 9.086034,-0.82358 9.88332,-2.35835 -8.828591,1.08594 -17.668853,4.00389 -26.620052,2.73475 -0.509264,-0.002 -1.062114,0.42016 -0.977264,0.98507 z" />
      <path
         style="fill:#1a1a1a;stroke:none;stroke-width:0.556634;stroke-opacity:1;-inkscape-stroke:none"
         id="path87"
         d="m 67.788046,157.68064 c 7.09152,-0.0167 14.245904,0.38241 21.253948,-0.66937 2.663142,-4.29265 -2.125397,-10.7502 -1.321765,-16.00812 -0.830591,-4.41771 -0.844916,-9.05701 0.04268,-13.47825 -1.678753,-3.72191 -1.694413,6.31745 -1.856821,8.26536 1.390157,5.54125 0.390925,11.62486 3.048241,16.86201 2.451547,7.14538 -7.746716,3.09705 -11.694775,4.22121 -2.404196,0.52001 -8.994356,-1.34627 -9.471448,0.80716 z" />
      <text
         xml:space="preserve"
         style="font-style:normal;font-variant:normal;font-weight:normal;font-stretch:normal;font-size:5.23648px;font-family:'3270 Nerd Font Mono';-inkscape-font-specification:'3270 Nerd Font Mono, Normal';font-variant-ligatures:normal;font-variant-caps:normal;font-variant-numeric:normal;font-variant-east-asian:normal;text-align:center;text-anchor:middle;fill:#1a1a1a;stroke:none;stroke-width:0.0780811;stroke-opacity:1;-inkscape-stroke:none"
         x="20.538704"
         y="139.62711"
         id="text98"
         transform="rotate(-4.7175807)"><tspan
           sodipodi:role="line"
           id="tspan98"
           style="font-style:normal;font-variant:normal;font-weight:normal;font-stretch:normal;font-size:5.23648px;font-family:'3270 Nerd Font Mono';-inkscape-font-specification:'3270 Nerd Font Mono, Normal';font-variant-ligatures:normal;font-variant-caps:normal;font-variant-numeric:normal;font-variant-east-asian:normal;stroke-width:0.0780811"
           x="20.538704"
           y="139.62711">error</tspan></text>
      <text
         xml:space="preserve"
         style="font-style:normal;font-variant:normal;font-weight:normal;font-stretch:normal;font-size:5.23648px;font-family:'3270 Nerd Font Mono';-inkscape-font-specification:'3270 Nerd Font Mono, Normal';font-variant-ligatures:normal;font-variant-caps:normal;font-variant-numeric:normal;font-variant-east-asian:normal;text-align:center;text-anchor:middle;fill:#1a1a1a;stroke:none;stroke-width:0.0780811;stroke-opacity:1;-inkscape-stroke:none"
         x="20.717268"
         y="154.05861"
         id="text99"
         transform="rotate(-4.7175807)"><tspan
           sodipodi:role="line"
           id="tspan99"
           style="font-style:normal;font-variant:normal;font-weight:normal;font-stretch:normal;font-size:5.23648px;font-family:'3270 Nerd Font Mono';-inkscape-font-specification:'3270 Nerd Font Mono, Normal';font-variant-ligatures:normal;font-variant-caps:normal;font-variant-numeric:normal;font-variant-east-asian:normal;stroke-width:0.0780811"
           x="20.717268"
           y="154.05861">error</tspan></text>
      <text
         xml:space="preserve"
         style="font-style:normal;font-variant:normal;font-weight:normal;font-stretch:normal;font-size:5.23648px;font-family:'3270 Nerd Font Mono';-inkscape-font-specification:'3270 Nerd Font Mono, Normal';font-variant-ligatures:normal;font-variant-caps:normal;font-variant-numeric:normal;font-variant-east-asian:normal;text-align:center;text-anchor:middle;fill:#1a1a1a;stroke:none;stroke-width:0.0780811;stroke-opacity:1;-inkscape-stroke:none"
         x="20.847305"
         y="148.75131"
         id="text104"
         transform="rotate(-4.7175807)"><tspan
           sodipodi:role="line"
           id="tspan104"
           style="font-style:normal;font-variant:normal;font-weight:normal;font-stretch:normal;font-size:5.23648px;font-family:'3270 Nerd Font Mono';-inkscape-font-specification:'3270 Nerd Font Mono, Normal';font-variant-ligatures:normal;font-variant-caps:normal;font-variant-numeric:normal;font-variant-east-asian:normal;stroke-width:0.0780811"
           x="20.847305"
           y="148.75131">error</tspan></text>
      <path
         style="fill:#ffffff;stroke:#ffffff;stroke-width:0.556634;stroke-opacity:1;-inkscape-stroke:none"
         id="path104"
         d="m 64.683678,166.91144 c 1.507978,-0.0848 -0.128212,0.0263 1.644372,-0.16644 0.330399,-0.036 0.662413,-0.0551 0.99361,-0.0826 0.02115,0.004 0.06828,-0.2942 0.04713,-0.29753 v 0 c -0.324221,0.013 -0.648312,0.0523 -0.972644,0.0418 -0.05659,-0.002 -1.344606,-0.16198 -1.506383,-0.18202 -0.04861,-0.0148 -0.254716,0.67206 -0.206159,0.68663 z" />
    </g>
  </g>
</svg>
